<svg xmlns="http://www.w3.org/2000/svg" viewBox="0 0 49.08 62.06"><defs><style>.cls-1{fill:#ebebeb;fill-rule:evenodd;}</style></defs><g id="Layer_2" data-name="Layer 2"><g id="Layer_20" data-name="Layer 20"><path class="cls-1" d="M49.08,24.54A24.54,24.54,0,1,0,3.39,36.94h0l.07.09c.94,1.59,2.12,2.72,3.32,4.39L21,60.29a4.44,4.44,0,0,0,7.08,0l14-18.56A53.22,53.22,0,0,0,45.66,37l.05-.07h0a24.38,24.38,0,0,0,3.38-12.4ZM24.54,35.23h0a10.8,10.8,0,1,1,10.8-10.8A10.81,10.81,0,0,1,24.54,35.23Z"/></g></g></svg>