<svg xmlns="http://www.w3.org/2000/svg" viewBox="0 0 119.68 101.46"><defs><style>.cls-1{fill:#fff;}.cls-1,.cls-2{fill-rule:evenodd;}.cls-2{fill:#263138;}</style></defs><g id="Layer_2" data-name="Layer 2"><g id="Layer_11" data-name="Layer 11"><polygon class="cls-1" points="119.34 0.38 0.43 0.38 0.43 85.15 89.86 85.15 105.26 100.55 105.26 85.15 119.34 85.15 119.34 0.38"/><path class="cls-2" d="M119.34.38s0,.49,0,1.49,0,2.49,0,4.41c0,3.92,0,9.64.09,17,0,14.77.1,36,.18,61.91v.34h-.34l-14.08,0,.36-.36c0,4.82,0,10,0,15.4v.91l-.64-.64L89.58,85.43l.28.12-78.53,0H0v-.43C0,54.62,0,25.82.05.38V0H.43L86.52.19l24.26.1,6.39.05,1.63,0,.54,0-.58,0-1.67,0-6.47,0L86.28.57.43.77.81.38c0,25.44,0,54.24,0,84.77l-.43-.43h10.9l78.53,0H90l.11.12,15.39,15.41-.64.27c0-5.36,0-10.58,0-15.4v-.36h.36l14.08,0-.34.34c.08-25.83.14-47,.18-61.7,0-7.35.07-13.1.09-17q0-2.91,0-4.47C119.32.92,119.34.38,119.34.38Z"/><path class="cls-2" d="M27.92,26.24c0-.24,14.31-.43,32-.43s32,.19,32,.43-14.3.43-32,.43S27.92,26.48,27.92,26.24Z"/><path class="cls-2" d="M27.92,38.35c0-.23,14.31-.43,32-.43s32,.2,32,.43-14.3.43-32,.43S27.92,38.59,27.92,38.35Z"/><path class="cls-2" d="M27.92,50.47c0-.24,14.31-.43,32-.43s32,.19,32,.43-14.3.42-32,.42S27.92,50.7,27.92,50.47Z"/></g></g></svg>