<svg xmlns="http://www.w3.org/2000/svg" viewBox="0 0 168.5 101.41"><defs><style>.cls-1{fill:#fff;}.cls-1,.cls-2{fill-rule:evenodd;}.cls-2{fill:#263138;}</style></defs><g id="Layer_2" data-name="Layer 2"><g id="Layer_12" data-name="Layer 12"><polygon class="cls-1" points="0.31 0.4 168.07 0.4 168.07 85.16 29.79 85.16 14.39 100.56 14.39 85.16 0.31 85.16 0.31 0.4"/><path class="cls-2" d="M.31.4s0,.53,0,1.52,0,2.48,0,4.4c0,3.88,0,9.56.08,16.87,0,14.63.1,35.78.17,62l-.32-.31,14.08,0h.33v.33c0,4.79,0,10,0,15.4l-.6-.24c4.83-4.85,10-10,15.39-15.42l.11-.11h.15l127.38-.05h10.9l-.43.42c0-29.89,0-58.47,0-84.76l.4.4L47.46.6,12.79.5,3.54.45l-2.4,0C.6.42.31.4.31.4s.26,0,.78,0l2.35,0,9.17,0L47.19.19,168.07,0h.4V.4c0,26.29,0,54.87,0,84.76v.43H157.17l-127.38,0,.27-.11L14.64,100.81l-.6.6v-.85c0-5.37,0-10.61,0-15.4l.33.34-14.08,0H0v-.32C.07,58.89.13,37.67.17,23c0-7.29.06-12.94.08-16.8,0-1.89,0-3.34,0-4.34S.31.4.31.4Z"/><path class="cls-2" d="M139.82,26.26c0,.23-25.08.42-56,.42s-56-.19-56-.42,25.07-.43,56-.43S139.82,26,139.82,26.26Z"/><path class="cls-2" d="M139.82,38.37c0,.23-25.08.43-56,.43s-56-.2-56-.43,25.07-.43,56-.43S139.82,38.13,139.82,38.37Z"/><path class="cls-2" d="M139.82,50.48c0,.24-25.08.43-56,.43s-56-.19-56-.43,25.07-.43,56-.43S139.82,50.25,139.82,50.48Z"/></g></g></svg>