<svg xmlns="http://www.w3.org/2000/svg" viewBox="0 0 67.19 67.19"><defs><style>.cls-1{fill:#ebebeb;}.cls-2{fill:#fff;fill-rule:evenodd;}</style></defs><g id="Layer_2" data-name="Layer 2"><g id="Layer_24" data-name="Layer 24"><rect class="cls-1" width="67.19" height="67.19" rx="7.35"/><path class="cls-2" d="M6.5,53.41,5.24,52.35,18.82,36.21a4.74,4.74,0,0,1,6.52-1.15l8.15,5.43,9.54-12a4.8,4.8,0,0,1,3.57-1.82,4.71,4.71,0,0,1,3.7,1.54L61.93,40.73l-1.21,1.11L49.09,29.28a3.08,3.08,0,0,0-2.43-1,3.11,3.11,0,0,0-2.34,1.19L33.84,42.7l-9.41-6.28a3.13,3.13,0,0,0-4.31.8Z"/><path class="cls-2" d="M33.59,17.44a6,6,0,1,1-6-6A6,6,0,0,1,33.59,17.44Z"/></g></g></svg>