<svg xmlns="http://www.w3.org/2000/svg" viewBox="0 0 217.1 103.49"><defs><style>.cls-1{fill:#fff;}.cls-1,.cls-2{fill-rule:evenodd;}.cls-2{fill:#263138;}.cls-3{fill:#dfdfdf;}.cls-4{fill:#445964;}</style></defs><g id="Layer_2" data-name="Layer 2"><g id="Layer_15" data-name="Layer 15"><polygon class="cls-1" points="216.8 0.41 0.43 0.41 0.43 89.44 195.02 89.44 208.28 102.7 208.28 89.44 216.8 89.44 216.8 0.41"/><path class="cls-2" d="M216.8.41s0,.5,0,1.52,0,2.54,0,4.52c0,4,0,9.93.08,17.56,0,15.35.09,37.63.16,65.43v.29h-.3l-8.51,0,.3-.31c0,4.09,0,8.62,0,13.26v.79l-.56-.56L194.78,89.68l.24.1-185.2.09H0v-.43C0,58.2,0,28.16,0,.41V0H.43L156,.19l44.81.12,11.93,0,3.06,0,1,0-1.07,0-3.11,0-12,0-44.9.11L.43.81l.4-.4c0,27.75,0,57.79,0,89L.43,89H9.82l185.2.08h.15l.1.1,13.25,13.28-.56.23c0-4.64,0-9.17,0-13.26v-.31h8.82l-.3.3c.07-27.72.13-49.94.16-65.25,0-7.66.06-13.59.08-17.63,0-2,0-3.52,0-4.58S216.8.41,216.8.41Z"/><rect class="cls-3" x="90.88" y="25.88" width="106.26" height="7.44" rx="3.53"/><rect class="cls-3" x="90.88" y="42.48" width="106.26" height="7.44" rx="3.53"/><rect class="cls-3" x="90.88" y="59.08" width="106.26" height="7.44" rx="3.53"/><rect class="cls-4" x="18.33" y="18.83" width="54.74" height="54.74" rx="7.35"/><path class="cls-1" d="M23.73,62.44l-1.25-1L33.55,48.24a4,4,0,0,1,5.51-1l6.52,4.35,7.68-9.71a4.05,4.05,0,0,1,6.16-.24l9.47,10.24L67.68,53,58.21,42.79a2.42,2.42,0,0,0-3.66.14l-8.62,10.9-7.79-5.19a2.4,2.4,0,0,0-3.3.6Z"/><path class="cls-1" d="M45.7,33.05a4.9,4.9,0,1,1-4.9-4.9A4.9,4.9,0,0,1,45.7,33.05Z"/></g></g></svg>