<svg xmlns="http://www.w3.org/2000/svg" viewBox="0 0 393.88 606.43"><defs><style>.cls-1{fill:#ff725d;}.cls-1,.cls-2,.cls-3,.cls-4,.cls-5,.cls-6,.cls-7,.cls-8,.cls-9{fill-rule:evenodd;}.cls-2{fill:#ff4600;}.cls-4{fill:#263138;}.cls-5{fill:#ffbd9c;}.cls-6{fill:#eb996e;}.cls-7{fill:#dfdfdf;}.cls-8{fill:#fff;}.cls-9{fill:#445964;}</style></defs><g id="Layer_2" data-name="Layer 2"><g id="Layer_17" data-name="Layer 17"><path class="cls-1" d="M69.63,251.13l.05,0C69.66,251,69.64,251.06,69.63,251.13Z"/><path class="cls-2" d="M393.85,480.32c-.54-11.81-18.26-170.7-20.94-191.1-4.26-32.58-30.48-40.75-30.48-40.75l-89.08-30.74H165.21L69.68,251.11l-.05,1.62c0-.9,0-1.43,0-1.6-.95.53-24.47,7.21-30.1,30.38C36.46,294.17.57,473.74,0,479s4.22,37.45,29.54,41.67c9.49,1.59,30,.13,52-2.31l-17.15,88H341.3l-9.79-62.91c22-8.57,45.07-18.17,48.92-22.17,7.51-7.81,14-29.22,13.42-41ZM80.61,435.08Z"/><path class="cls-3" d="M153,461.65c-.66-5.63-1.58-11.33-4.08-16.42s-6.83-9.53-12.32-11-12.05.88-14.49,6c-10,28-.9,43.83,18.15,59,3,2.4,6.76,4.28,10.45,3.17s4.38-3.76,4.55-7.55C155.77,483.66,154.31,472.81,153,461.65Z"/><path class="cls-4" d="M114,429.81a9,9,0,0,1-1.81.29l-5,.53c-4.27.42-10.25,1-17.07,1.53l.2-.07c-1.56,1.08-3.17,2.2-4.79,3.39-6.68,4.82-12.29,9.77-15.72,13.92a46.58,46.58,0,0,0-3.72,5.16,14.12,14.12,0,0,1-1.23,2,10.74,10.74,0,0,1,.94-2.17A36.05,36.05,0,0,1,69.32,449c3.35-4.31,9-9.39,15.67-14.23,1.64-1.2,3.26-2.32,4.82-3.4l.1-.06H90c6.82-.53,12.81-1,17.1-1.23l5-.28A7.92,7.92,0,0,1,114,429.81Z"/><path class="cls-4" d="M157.06,460.58a2.22,2.22,0,0,1,.14.5c.08.38.18.86.32,1.47.23,1.3.57,3.22.87,5.72a186.09,186.09,0,0,1,1.14,21.22c0,2.25,0,4.6-.05,7.05a10.36,10.36,0,0,1-2.48,7.27,11.17,11.17,0,0,1-7.35,3.68L141.11,509c-11.67,2-24.47,4.52-38,6.7s-26.49,3.73-38.32,4.77-22.51,1.87-31.5,1.22a45.48,45.48,0,0,1-6.37-.89,17.77,17.77,0,0,1-5.34-2.18,41.43,41.43,0,0,1-7.15-5.73c-1.8-1.75-3.13-3.17-4-4.14l-1-1.12a2.82,2.82,0,0,1-.32-.4,2.19,2.19,0,0,1,.39.34l1.07,1.06c.93.93,2.3,2.31,4.13,4a42.66,42.66,0,0,0,7.17,5.56,17.57,17.57,0,0,0,5.21,2.06,44.38,44.38,0,0,0,6.29.81c8.93.58,19.6-.24,31.39-1.39S89.48,517,103,514.84s26.31-4.63,38-6.64l8.54-1.45a10.46,10.46,0,0,0,6.95-3.41,9.68,9.68,0,0,0,2.35-6.82c.06-2.44.1-4.79.11-7a206,206,0,0,0-.88-21.19c-.24-2.49-.52-4.41-.7-5.72-.1-.62-.18-1.1-.24-1.48A3.86,3.86,0,0,1,157.06,460.58Z"/><path class="cls-4" d="M100.31,327.4c.23,0-1.87,23.4-4.7,52.21s-5.32,52.15-5.56,52.13,1.87-23.4,4.7-52.22S100.07,327.37,100.31,327.4Z"/><path class="cls-4" d="M327.43,307.05a1.71,1.71,0,0,1,0,.4c0,.31,0,.69,0,1.16,0,1.1-.08,2.59-.14,4.48-.13,3.9-.4,9.53-.76,16.48-.74,13.9-2.06,33.1-3.7,54.27s-3.06,40.37-3.95,54.26c-.43,6.89-.78,12.49-1,16.45-.12,1.89-.23,3.38-.3,4.48,0,.46-.07.85-.1,1.16a1.34,1.34,0,0,1-.06.39s0-.13,0-.4,0-.69,0-1.16c0-1.1.08-2.59.14-4.48.13-3.89.39-9.52.76-16.48.73-13.9,2.06-33.09,3.7-54.28s3.05-40.36,3.94-54.25c.43-6.89.79-12.49,1-16.45.13-1.89.23-3.38.3-4.48,0-.46.08-.85.1-1.16S327.41,307.05,327.43,307.05Z"/><path class="cls-4" d="M385.62,477.52c-.16.1-1.56-3.08-5.11-7.26a40.13,40.13,0,0,0-17.45-11.88,71.45,71.45,0,0,0-11.47-2.67,27.1,27.1,0,0,0-9.52.31,27.46,27.46,0,0,0-6.06,2.23,16.92,16.92,0,0,1-2.15,1.07s.15-.16.49-.4.82-.59,1.5-1a24.3,24.3,0,0,1,6.08-2.53,26.62,26.62,0,0,1,9.75-.51,67.49,67.49,0,0,1,11.65,2.65A39,39,0,0,1,381,469.87a36,36,0,0,1,3.66,5.46A11.18,11.18,0,0,1,385.62,477.52Z"/><path class="cls-4" d="M339.22,540.49a4.93,4.93,0,0,1-1,.5l-2.83,1.27c-2.45,1.08-6,2.65-10.43,4.52a103.62,103.62,0,0,1-16,5.61,24,24,0,0,1-10.05.29,19.43,19.43,0,0,1-9.4-5.27,26.63,26.63,0,0,1-5.83-9.09,60.93,60.93,0,0,1-3.1-9.52,138.14,138.14,0,0,1-3-16.64c-.58-4.77-.91-8.64-1.13-11.32-.1-1.27-.18-2.29-.23-3.08a5,5,0,0,1,0-1.09,5.08,5.08,0,0,1,.2,1.07l.39,3.07c.32,2.66.74,6.52,1.4,11.28a152.21,152.21,0,0,0,3.12,16.52,62,62,0,0,0,3.11,9.38,26.12,26.12,0,0,0,5.64,8.8,18.83,18.83,0,0,0,9,5.07,23.28,23.28,0,0,0,9.71-.24,110.16,110.16,0,0,0,15.89-5.4L335.3,542l2.89-1.12A5.71,5.71,0,0,1,339.22,540.49Z"/><path class="cls-3" d="M157.24,503.05c-2.46,3.43-7.67,4.13-11.83,4.83-22,3.73-41.83,7.3-64,9.71l-2.83,14.54c22.49-3.61,45.63-8.35,66.86-16.6a26.54,26.54,0,0,0,8.09-4.38C155.81,509.11,157.5,506.13,157.24,503.05Z"/><path class="cls-3" d="M284.62,501.47c1,11.82,4.2,24.09,10.16,34.35,1.37,2.36,3.44,4.95,6.15,4.65,2.1-.23,3.56-2.14,4.67-3.93,4.25-6.86,8.12-13.4,9.44-21.36l-21-8.37Z"/><path class="cls-4" d="M238.85,499c.14.19-15.82,12.73-35.65,28s-36,27.5-36.18,27.31,15.81-12.72,35.65-28S238.7,498.82,238.85,499Z"/><path class="cls-4" d="M326.24,470a19.72,19.72,0,0,1,.23,2.74,29.77,29.77,0,0,1,0,3.22,41.76,41.76,0,0,1-.34,4.25,110.28,110.28,0,0,1-5.94,23.93,129.41,129.41,0,0,1-10.44,22.34,63.44,63.44,0,0,1-4.17,6.22,15.53,15.53,0,0,1-1.77,2.09,18.79,18.79,0,0,1,1.5-2.29c1-1.46,2.38-3.59,3.92-6.32a146.33,146.33,0,0,0,10.15-22.33,121.94,121.94,0,0,0,6.15-23.71c.21-1.56.41-3,.46-4.21s.21-2.32.18-3.19A16,16,0,0,1,326.24,470Z"/><path class="cls-5" d="M203.42,415.47s-24.4-39-43.55-31.32c0,0-9.74-8-16-2.88s-4,15.48-4,15.48-11.81-9.57-17.08-4.62-1.43,13.4,0,17.55,2.24,12.93,2.24,12.93-7.18-3.67-10.54,2.23,9.42,25.7,11.34,28.41,14.2,14.84,22.66,11.65,14.36-11.65,14.36-11.65Z"/><path class="cls-6" d="M139.9,398.25a15,15,0,0,1,2.21,1.38l5.84,4,8.6,6.06a13.22,13.22,0,0,1,2.34,2.07,5.27,5.27,0,0,1,1.3,3.12,6.39,6.39,0,0,1-3.72,5.66,10.74,10.74,0,0,1-6.78.7,22.75,22.75,0,0,1-5.9-2.21c-3.53-1.82-6.62-3.61-9.17-5.19s-4.55-3-5.91-3.92a13.75,13.75,0,0,1-2.05-1.61,16.82,16.82,0,0,1,2.24,1.33c1.41.89,3.46,2.17,6,3.68s5.68,3.24,9.2,5a23.2,23.2,0,0,0,5.7,2.09,10,10,0,0,0,6.25-.65,5.56,5.56,0,0,0,3.26-4.86c-.07-2-1.74-3.46-3.27-4.59l-8.48-6.19-5.68-4.24A16,16,0,0,1,139.9,398.25Z"/><path class="cls-6" d="M140.22,397.06a3.31,3.31,0,0,1,.73.48l2,1.51c1.72,1.3,4.21,3.21,7.37,5.42A49.89,49.89,0,0,0,162.1,411a29.22,29.22,0,0,0,7.7,1.71c2.7.17,5.67.12,8.22-1.11a6.69,6.69,0,0,0,2.94-2.77,4.94,4.94,0,0,0,.34-3.8c-.81-2.52-2.74-4.54-4.4-6.41a88.79,88.79,0,0,0-10.09-9c-3-2.37-5.59-4.19-7.36-5.43l-2-1.42a3.48,3.48,0,0,1-.69-.55,3.8,3.8,0,0,1,.78.4c.5.28,1.22.72,2.14,1.29,1.83,1.16,4.44,2.91,7.54,5.23a84.24,84.24,0,0,1,10.3,9,38.35,38.35,0,0,1,2.58,3,12.18,12.18,0,0,1,2,3.7,5.79,5.79,0,0,1-.38,4.44,7.58,7.58,0,0,1-3.32,3.14,17.38,17.38,0,0,1-8.67,1.18,30,30,0,0,1-7.9-1.81A48.47,48.47,0,0,1,150,405c-3.14-2.28-5.57-4.27-7.23-5.65l-1.89-1.63A4.64,4.64,0,0,1,140.22,397.06Z"/><path class="cls-5" d="M124,422.55l17.15,8.23c2,.94,4.21,2.35,4.13,4.51a4.5,4.5,0,0,1-1.25,2.65c-2.75,3.16-7.22,4.37-11.4,4.12s-8.17-1.76-12.08-3.25Z"/><path class="cls-6" d="M120.53,438.81c0-.17,2.84,1,7.51,2.21a21,21,0,0,0,8.3.46,13.88,13.88,0,0,0,4.59-1.59,9.13,9.13,0,0,0,3.63-3.53,2.61,2.61,0,0,0,0-2.28,5,5,0,0,0-1.64-1.78,36.84,36.84,0,0,0-4.38-2.32l-7.64-3.76-5.12-2.61a10.4,10.4,0,0,1-1.82-1.06,9.75,9.75,0,0,1,2,.76l5.23,2.36,7.72,3.6a36.21,36.21,0,0,1,4.52,2.34,5.58,5.58,0,0,1,1.92,2.1,3.46,3.46,0,0,1,0,3c-2,3.52-5.69,5-8.87,5.54a20.7,20.7,0,0,1-8.57-.66,45.81,45.81,0,0,1-5.45-1.89A9.2,9.2,0,0,1,120.53,438.81Z"/><path class="cls-5" d="M150.72,463.93l-25.86,19.5s-12.54-17.46-4.21-38.65h6.23l-1.42,7,11.78,2.46Z"/><path class="cls-5" d="M120.11,444.31q4.74,6.19,9.5,12.38a20,20,0,0,0,3.68,4,6.75,6.75,0,0,0,5.1,1.44Z"/><path class="cls-6" d="M138.39,462.12c.08.08-1.56.7-3.89-.35a10.63,10.63,0,0,1-3.42-2.64c-1.09-1.2-2.12-2.6-3.24-4-2.23-2.91-4.21-5.56-5.61-7.51a16.62,16.62,0,0,1-2.12-3.27,17.88,17.88,0,0,1,2.6,2.9c1.52,1.85,3.58,4.45,5.81,7.35,1.12,1.45,2.14,2.87,3.15,4.05a10.87,10.87,0,0,0,3.09,2.61A8.76,8.76,0,0,0,138.39,462.12Z"/><path class="cls-7" d="M127.54,447.08l31.65-30.28a16.06,16.06,0,0,1,11.57-4.44L333.2,417.1a3.41,3.41,0,0,1,1.92,6.15L289.5,456.76a4.33,4.33,0,0,1-2.75.84l-157.83-6.85A2.13,2.13,0,0,1,127.54,447.08Z"/><path class="cls-4" d="M336.45,421.19a3.82,3.82,0,0,1-.58,0H334.2l-6.43-.1-23.63-.54-78-2.09-42.92-1.25-9.64-.29a36.55,36.55,0,0,0-4.56,0,11.41,11.41,0,0,0-4.11,1.33,15.13,15.13,0,0,0-3.32,2.6l-3.07,2.83L152.8,429l-17.42,16-4.76,4.31-1.26,1.11a3.37,3.37,0,0,1-.44.36s.12-.16.38-.42l1.2-1.17c1.1-1.05,2.66-2.54,4.66-4.43l17.23-16.18,5.72-5.35,3-2.84a16.13,16.13,0,0,1,3.45-2.72,12.11,12.11,0,0,1,4.36-1.43,34.66,34.66,0,0,1,4.67,0l9.64.25,42.92,1.19,78,2.34,23.62.8,6.43.27,1.67.08A2.41,2.41,0,0,1,336.45,421.19Z"/><path class="cls-8" d="M368.65,335.75c.2.12-7.89,15.75-18.08,34.91S332,405.28,331.74,405.17s7.88-15.74,18.08-34.91S368.44,335.64,368.65,335.75Z"/><path class="cls-8" d="M309.15,332.53c.23.06-3,14-7.25,31.19s-7.86,31-8.09,31,3-14,7.26-31.19S308.92,332.47,309.15,332.53Z"/><path class="cls-8" d="M60.6,358.08c.18-.16,10.12,10.92,22.2,24.73s21.74,25.15,21.56,25.31-10.12-10.92-22.2-24.74S60.42,358.23,60.6,358.08Z"/><path class="cls-8" d="M99.83,303.1c.23-.06,5.43,17.1,11.6,38.33s11,38.49,10.78,38.56-5.42-17.09-11.6-38.32S99.61,303.17,99.83,303.1Z"/><path class="cls-8" d="M260.52,284.3a6.16,6.16,0,0,1,.07,1.16c0,.85,0,2,.05,3.34,0,3,0,7.17,0,12.28-.07,10.45-.17,24.73-.28,40.5s-.39,30.06-.53,40.51c-.11,5.11-.2,9.28-.26,12.28-.05,1.38-.08,2.49-.11,3.34a6.24,6.24,0,0,1-.1,1.16,5.53,5.53,0,0,1-.08-1.16c0-.85,0-2,0-3.34,0-3,0-7.17,0-12.28.08-10.45.18-24.73.29-40.51s.39-30.05.53-40.51c.11-5.11.2-9.27.26-12.27.05-1.38.08-2.49.11-3.34A6.24,6.24,0,0,1,260.52,284.3Z"/><path class="cls-4" d="M316,83.49c-6.14-6.57-13.57-12.77-15.71-21.5-2-8,.86-17.22-3.39-24.31-5.23-8.72-18.27-9.44-24.55-17.44-3-3.87-4.1-9-7.11-12.9-5.13-6.65-14.66-8.14-23-7S226,4.77,217.69,5.63c-11.45,1.18-23.42-2.18-34.33,1.47-12.05,4-19.13,15-26.7,25.71l-9.92,12.42A46.17,46.17,0,0,1,140,51c-4.24,2.94-9.14,5-12.76,8.74-7.73,7.91-6.58,22.61,2.29,29.23a21.72,21.72,0,0,0-13.95,21.78c.46,5.08,2.73,9.8,4.42,14.62s2.78,10.21.9,14.95-7.76,8.16-12.29,5.79a22.87,22.87,0,0,0,13,14.82,13.68,13.68,0,0,1-9,4.39c10,21.55,35.73,32.2,59.5,31.53s46.2-10.44,67.95-20L303.42,158c5.58-1.47,7.69-8.38,7.41-14.14s-1.94-11.71-.06-17.16c2.57-7.48,11-11.68,13.72-19.11C327.57,99.18,322.14,90.06,316,83.49Z"/><path class="cls-4" d="M166.62,147c-5.13-14.3-10.19-28.71-12.78-43.68s-2.6-30.65,2.27-45c.74-2.18,7.14-16.85,9.44-16.7,1.64.12-2.17,13.74-1.3,15.14C172.56,70,175.19,86.28,174.39,102S170.76,131.82,166.62,147Z"/><path class="cls-5" d="M222.78,16.76l-3.53-.08C181.18,18,161,51.07,163.4,89.09l1.08,131.12a44.59,44.59,0,0,0,89.17.89c.19-6.89.35-11.71.38-11.71s36.69-4.82,38-41.35c.63-17.65-1-54.09-2.88-87.06A68.11,68.11,0,0,0,222.78,16.76Z"/><path class="cls-6" d="M254,209.39s-23.07.8-47.24-15.2c0,0,10.38,27.19,46.92,24.77Z"/><path class="cls-4" d="M273.06,114.71a5.23,5.23,0,0,1-5.16,5.15,5,5,0,0,1-5.27-4.83,5.22,5.22,0,0,1,5.16-5.15A5,5,0,0,1,273.06,114.71Z"/><path class="cls-4" d="M281,96c-.66.67-4.55-2.35-10.16-2.47s-9.8,2.59-10.39,1.89c-.3-.32.39-1.53,2.22-2.79A14.36,14.36,0,0,1,271,90.23a13.84,13.84,0,0,1,8.07,2.82C280.76,94.42,281.32,95.66,281,96Z"/><path class="cls-4" d="M222.23,114.72a5.23,5.23,0,0,1-5.16,5.14A5,5,0,0,1,211.8,115a5.22,5.22,0,0,1,5.16-5.15A5,5,0,0,1,222.23,114.72Z"/><path class="cls-4" d="M225.93,96.92c-.67.67-4.56-2.35-10.17-2.47S206,97,205.37,96.34c-.29-.31.39-1.52,2.23-2.79a14.27,14.27,0,0,1,8.33-2.35A13.72,13.72,0,0,1,224,94C225.69,95.38,226.25,96.63,225.93,96.92Z"/><path class="cls-4" d="M245.05,140.55c0-.32,3.48-.84,9.16-1.42,1.43-.12,2.8-.37,3.06-1.34s-.2-2.59-.85-4.28q-1.91-5.25-4-11c-5.52-15.68-9.48-28.57-8.85-28.79s5.62,12.33,11.14,28q2,5.81,3.8,11.08c.51,1.65,1.4,3.52.61,5.65a3.58,3.58,0,0,1-2.41,2,9.37,9.37,0,0,1-2.44.28C248.59,140.93,245.06,140.87,245.05,140.55Z"/><path class="cls-4" d="M228.43,144.05c.91,0,.78,6.06,5.89,10.51s11.62,3.94,11.65,4.79c.07.38-1.48,1.15-4.22,1.16a15.19,15.19,0,0,1-9.73-3.65,13.2,13.2,0,0,1-4.55-8.81C227.29,145.49,228,144,228.43,144.05Z"/><path class="cls-4" d="M226.16,74.13c-.59,1.51-6.18.65-12.79,1.29s-12,2.31-12.82.92c-.37-.67.59-2.08,2.77-3.51a22.35,22.35,0,0,1,19.51-1.68C225.23,72.18,226.42,73.41,226.16,74.13Z"/><path class="cls-4" d="M279.11,77.24c-1,1.25-4.85-.17-9.5-.34-4.65-.33-8.61.65-9.49-.7-.38-.66.27-1.92,2-3.09a13.79,13.79,0,0,1,15.3.84C279.06,75.3,279.56,76.63,279.11,77.24Z"/><path class="cls-5" d="M165.74,116.22c-.62-.28-24.94-8-24.73,17s25.26,19.64,25.3,18.92S165.74,116.22,165.74,116.22Z"/><path class="cls-6" d="M158.59,142.71c-.11-.08-.43.31-1.16.65a4.37,4.37,0,0,1-3.26.1c-2.65-1-4.91-5.13-5.06-9.63a14.3,14.3,0,0,1,1.16-6.25c.75-1.83,1.93-3.12,3.25-3.37a2.21,2.21,0,0,1,2.58,1.17c.34.7.19,1.2.32,1.24s.54-.42.33-1.45a2.81,2.81,0,0,0-1-1.56,3.33,3.33,0,0,0-2.41-.62c-1.93.15-3.65,1.94-4.52,3.92a14.74,14.74,0,0,0-1.46,7c.21,5,2.82,9.73,6.45,10.74a4.65,4.65,0,0,0,4-.69C158.55,143.31,158.68,142.76,158.59,142.71Z"/><path class="cls-4" d="M272.28,39.84c4-2.3-8.35-15.2-18.37-19.54C238.77,13.74,215.75,9.93,202,14.09c-16.6,5-30.32,13.55-38.44,28.87s-11,33.07-10.18,50.4c.24,5.28.88,10.78,3.78,15.21C160.7,114,167.46,117.4,167.3,125a10.45,10.45,0,0,0,2.73,7.59c4.65,4.79,10.17.12,12.66-4.5,5.33-9.89,5.75-21.59,6-32.82.21-8,.39-16.12-2-23.74-1.3-4.15-3.33-8.05-4.39-12.27s-1-9,1.56-12.51a15.12,15.12,0,0,1,2-2.08,26.08,26.08,0,0,1,25.79-5.37c14.16,4.74,38.33,11.78,44.52,6.89,8.92-7,11-11.54,11-11.54Z"/><path class="cls-4" d="M203.21,10.68c13.66-4.83,29.3-4.86,42.27,1.6,6.89,3.42,13.15,9,15.35,16.34S260,45.15,253,48.17l-.48.32c-10.6,3.77-17.56,2.46-28.26-1-9-3-17.05-8.34-26.07-11.24a50.87,50.87,0,0,0-29.75-.36C177.78,24.81,189.55,15.5,203.21,10.68Z"/><path class="cls-9" d="M144.89,118.09a10.65,10.65,0,0,1-1.24-1.45,20.18,20.18,0,0,1-2.65-4.81,21.08,21.08,0,0,1-1.44-8.56,20.82,20.82,0,0,1,3.63-10.87,21.54,21.54,0,0,1,4.6-4.93A23.72,23.72,0,0,1,154.21,84c4.66-1.81,10.08-2.75,14.52-6.1a12.19,12.19,0,0,0,4.62-6.78,28,28,0,0,0,.49-8.81c-.42-6.06-.66-12.6,1.36-18.9S181.78,32,186.84,28.58a43.44,43.44,0,0,1,16.32-6.78,41.31,41.31,0,0,1,16,0A34.74,34.74,0,0,1,232,27.26a33.85,33.85,0,0,1,12.48,15.57A27.73,27.73,0,0,1,246,48.11c.08.58.15,1,.2,1.42a2.46,2.46,0,0,1,0,.48,39.1,39.1,0,0,0-2-7,34,34,0,0,0-12.51-15.2A34.32,34.32,0,0,0,219,22.52a40.67,40.67,0,0,0-15.7.06,42.89,42.89,0,0,0-16,6.69c-5,3.4-9.38,8.27-11.3,14.4s-1.76,12.53-1.34,18.59a28.76,28.76,0,0,1-.54,9.08,12.92,12.92,0,0,1-4.93,7.18c-4.67,3.48-10.16,4.38-14.75,6.14a21.41,21.41,0,0,0-10.77,8.08A20.55,20.55,0,0,0,140,103.3a21.24,21.24,0,0,0,1.28,8.41A24.64,24.64,0,0,0,144.89,118.09Z"/><path class="cls-9" d="M142.19,123.79a13,13,0,0,1-1.92-1.11,25.15,25.15,0,0,1-4.82-4.17,26.75,26.75,0,0,1-5.16-8.65,25.39,25.39,0,0,1-1-13.26,26,26,0,0,1,7.59-14.17c4.21-4.14,9.78-7.1,15-11a30.91,30.91,0,0,0,7-6.92,34.06,34.06,0,0,0,4.46-9.26c2.23-6.69,3.24-14.09,6.42-21A39.7,39.7,0,0,1,184.2,17.78a40.65,40.65,0,0,1,19.41-6.45A44.33,44.33,0,0,1,222,14a45.25,45.25,0,0,1,13.9,8.25,49,49,0,0,1,13.31,19.08,37.65,37.65,0,0,1,2.34,8.25,3.65,3.65,0,0,1-.17-.54q-.17-.6-.42-1.59a56.54,56.54,0,0,0-2.06-6,49.51,49.51,0,0,0-13.39-18.74,44.91,44.91,0,0,0-13.76-8,43.81,43.81,0,0,0-18.05-2.59,40,40,0,0,0-19,6.38,39.12,39.12,0,0,0-14.16,16.12c-3.11,6.8-4.13,14.18-6.4,21A34.69,34.69,0,0,1,159.5,65a31.36,31.36,0,0,1-7.21,7.07C147,76,141.48,78.91,137.35,82.94a25.43,25.43,0,0,0-7.49,13.77,25,25,0,0,0,.88,13,26.82,26.82,0,0,0,5,8.59,27.23,27.23,0,0,0,4.67,4.25C141.54,123.38,142.22,123.75,142.19,123.79Z"/><path class="cls-5" d="M290,449.31s-67.9-15.8-78.27-16.57c-9.74-.73-12.28,5.37-12.28,5.37s-14.55-1.83-17.77,6.67c0,0-2.56,5,3.41,7.48s38.35,9.64,45,15.84S292.53,506,292.53,506L315,515.18s10.1-26.41,10.56-34-2.3-11.71-2.3-11.71,14-14.24,15.62-20S350.63,424,350.63,424s-9.48-9.67-18.87,1.71-14.64,16.48-17.18,18.5C307.27,450,294.3,450.68,290,449.31Z"/><path class="cls-6" d="M267.37,469.12a2.51,2.51,0,0,1-.72-.28l-2-.95-7.31-3.51c-6.21-2.9-14.86-6.71-24.67-10.3-4.9-1.81-9.62-3.39-13.94-4.74s-8.28-2.34-11.47-3.74a15.14,15.14,0,0,1-6.58-4.78,8.52,8.52,0,0,1-1.06-2,2.76,2.76,0,0,1-.21-.74,21,21,0,0,0,1.54,2.51,15.41,15.41,0,0,0,6.55,4.42c3.13,1.3,7.13,2.19,11.47,3.54s9.08,2.89,14,4.69a253.48,253.48,0,0,1,24.63,10.56c3.07,1.54,5.52,2.83,7.2,3.76l1.92,1.1A3.29,3.29,0,0,1,267.37,469.12Z"/><path class="cls-6" d="M311.49,446.39c.17.12-2.16,3-6.12,5.05s-7.61,2.44-7.62,2.23,3.43-.95,7.22-3S311.31,446.2,311.49,446.39Z"/></g></g></svg>