<svg xmlns="http://www.w3.org/2000/svg" viewBox="0 0 177.76 178.98"><defs><style>.cls-1{fill:#ebebeb;fill-rule:evenodd;}</style></defs><g id="Layer_2" data-name="Layer 2"><g id="Layer_23" data-name="Layer 23"><path class="cls-1" d="M177.39,91.63c-.17,0-.38-1.92-.63-5.56a45.56,45.56,0,0,0-.75-6.68,66.6,66.6,0,0,0-1.75-9,84.59,84.59,0,0,0-9.33-23.09,86.67,86.67,0,0,0-21.47-24.74A85.57,85.57,0,0,0,107.72,5.92C93.76,3.23,78,3.33,62.8,8.72A80.41,80.41,0,0,0,41,19.85a96.38,96.38,0,0,0-9.84,8,96.66,96.66,0,0,0-8.57,9.68C11.77,51.22,5.44,69,4.82,87.43,4.54,105.9,10,124,20.12,138.15a96.06,96.06,0,0,0,8.09,10.09,95.22,95.22,0,0,0,9.45,8.47,80.29,80.29,0,0,0,21.25,12.18c14.88,6.11,30.66,7,44.74,5A85.56,85.56,0,0,0,140.15,159a86.55,86.55,0,0,0,22.65-23.66,84.13,84.13,0,0,0,10.43-22.61,67,67,0,0,0,2.19-8.88,46.74,46.74,0,0,0,1.07-6.64c.42-3.62.73-5.53.9-5.53s.18,1.93.06,5.61a39,39,0,0,1-.62,6.79,60.08,60.08,0,0,1-1.8,9.15,82.37,82.37,0,0,1-9.95,23.54,88.67,88.67,0,0,1-60.8,41.08c-14.7,2.29-31.27,1.53-47-4.78a84.68,84.68,0,0,1-22.47-12.68,103,103,0,0,1-10-8.88,101.6,101.6,0,0,1-8.57-10.61C5.52,125.91-.3,106.81,0,87.31.65,67.83,7.4,49.05,18.84,34.65a101.57,101.57,0,0,1,9.08-10.18,100.58,100.58,0,0,1,10.42-8.38,84.11,84.11,0,0,1,23-11.57C77.39-1,94-1,108.55,2a88.69,88.69,0,0,1,58.73,44,82.43,82.43,0,0,1,8.8,24,60.5,60.5,0,0,1,1.35,9.23,38.9,38.9,0,0,1,.29,6.8C177.66,89.72,177.55,91.64,177.39,91.63Z"/><path class="cls-1" d="M159.88,37c.19.28-1.38,1.65-4.43,3.91l-5.63,4.05c-1.12.76-2.29,1.62-3.59,2.44l-4.31,2.25a98.6,98.6,0,0,1-51.44,13l-7.79-.34-7.47-1.17c-1.22-.21-2.44-.37-3.63-.61l-3.49-.93c-2.3-.64-4.57-1.18-6.73-1.87A112.45,112.45,0,0,1,39.54,47.58C27.82,40.49,22.11,34,22.55,33.63s6.85,4.86,18.66,11A131.91,131.91,0,0,0,62.7,53.41c2.09.61,4.28,1.07,6.49,1.64l3.35.83L76,56.4l7.14,1.06,7.43.29c20.14.7,38-5.34,49.81-11.18l4.36-1.89c1.33-.7,2.53-1.44,3.69-2.08l6-3.29C157.74,37.55,159.69,36.69,159.88,37Z"/><path class="cls-1" d="M19.89,143.36c-.19-.27,1.38-1.65,4.43-3.91l5.63-4c1.12-.77,2.29-1.63,3.59-2.45l4.31-2.25a98.8,98.8,0,0,1,51.44-13l7.79.34,7.47,1.17c1.22.21,2.44.37,3.63.61l3.49.93c2.3.64,4.57,1.18,6.73,1.87a112.65,112.65,0,0,1,21.82,10.06c11.73,7.09,17.44,13.54,17,13.95s-6.85-4.86-18.66-11a131.91,131.91,0,0,0-21.49-8.79c-2.09-.61-4.28-1.07-6.49-1.64l-3.35-.83-3.48-.52-7.14-1-7.43-.3c-20.14-.7-38,5.34-49.81,11.18L35,135.65c-1.33.69-2.53,1.43-3.69,2.07l-6,3.3C22,142.77,20.08,143.63,19.89,143.36Z"/><path class="cls-1" d="M177.34,93.67c0,1.33-39.23,1.45-87.54.28S2.33,90.75,2.37,89.42,41.59,88,89.91,89.14,177.37,92.34,177.34,93.67Z"/><path class="cls-1" d="M85.82,176.91c-1.33,0-1.46-39.21-.28-87.51S88.74,2,90.07,2s1.45,39.21.28,87.52S87.15,177,85.82,176.91Z"/><path class="cls-1" d="M85.82,176.78c-.33.51-10-6-21.1-20.82a117.51,117.51,0,0,1-15.63-28.4,105.28,105.28,0,0,1-6.77-39.21,100.4,100.4,0,0,1,8.83-38.81A121.55,121.55,0,0,1,68.24,22C80,7.78,89.74,1.47,90.07,2S81.74,9.69,70.92,24.12A130.68,130.68,0,0,0,55.22,51.3a100.82,100.82,0,0,0-8.09,37.15A106.52,106.52,0,0,0,53.25,126,126.21,126.21,0,0,0,67.5,154C77.63,168.9,86.31,176.25,85.82,176.78Z"/><path class="cls-1" d="M92,2c.33-.51,10,6,21.09,20.82a117.51,117.51,0,0,1,15.64,28.4,105.67,105.67,0,0,1,6.77,39.2,100.31,100.31,0,0,1-8.83,38.81,122,122,0,0,1-17.09,27.53c-11.79,14.23-21.5,20.55-21.83,20s8.33-7.71,19.15-22.14a131,131,0,0,0,15.7-27.19,100.76,100.76,0,0,0,8.09-37.14,106.52,106.52,0,0,0-6.12-37.59,126.64,126.64,0,0,0-14.25-27.95C100.22,9.9,91.54,2.56,92,2Z"/></g></g></svg>