<svg xmlns="http://www.w3.org/2000/svg" viewBox="0 0 210.31 118.01"><defs><style>.cls-1,.cls-5{fill:#ebebeb;}.cls-1,.cls-2,.cls-3,.cls-4{fill-rule:evenodd;}.cls-2{fill:#dfdfdf;}.cls-3{fill:#f4f4f4;}.cls-4{fill:#f9f9f9;}</style></defs><g id="Layer_2" data-name="Layer 2"><g id="Layer_19" data-name="Layer 19"><path class="cls-1" d="M37.77,1.52S19,15.83,37,34.73a1.63,1.63,0,0,0,1.19.5l164.08-.95s14-15.72,2.38-33.83Z"/><path class="cls-2" d="M166,16.45c0,.19-20.43.34-45.63.34s-45.63-.15-45.63-.34,20.42-.33,45.63-.33S166,16.27,166,16.45Z"/><path class="cls-2" d="M140.47,22.39c0,.18-9.61.33-21.45.33s-21.46-.15-21.46-.33,9.6-.33,21.46-.33S140.47,22.21,140.47,22.39Z"/><path class="cls-2" d="M182.76,33.75c-.1,0,.36-1.88.87-4.92a70.22,70.22,0,0,0,1-12,70,70,0,0,0-1.17-11.95c-.57-3-1.07-4.88-1-4.91a4.77,4.77,0,0,1,.48,1.26c.28.83.6,2,1,3.55a58.5,58.5,0,0,1,1.37,12,57.78,57.78,0,0,1-1.15,12.06c-.31,1.52-.62,2.74-.87,3.57A4.83,4.83,0,0,1,182.76,33.75Z"/><path class="cls-2" d="M195,.25a5.51,5.51,0,0,1,.73,1.19,14.36,14.36,0,0,1,.73,1.47c.26.59.58,1.24.84,2a35.8,35.8,0,0,1,1.56,5.44,39.65,39.65,0,0,1,.71,6.91,39.17,39.17,0,0,1-.6,6.91,34.65,34.65,0,0,1-1.47,5.47c-.25.77-.56,1.43-.81,2a15.19,15.19,0,0,1-.7,1.48,5.52,5.52,0,0,1-.72,1.21c-.11-.06.8-1.83,1.78-4.86a39.94,39.94,0,0,0,1.32-5.42,42.45,42.45,0,0,0,.54-6.81,42.88,42.88,0,0,0-.65-6.79,38.89,38.89,0,0,0-1.41-5.41C195.84,2.06,194.9.31,195,.25Z"/><path class="cls-2" d="M63.66,34a4.86,4.86,0,0,1-.76-1.1,10.62,10.62,0,0,1-.77-1.36,20.14,20.14,0,0,1-.88-1.89,29.29,29.29,0,0,1-1.6-5.18A33.19,33.19,0,0,1,59,17.83a32.64,32.64,0,0,1,.81-6.59,28.88,28.88,0,0,1,1.74-5.13,17.86,17.86,0,0,1,.93-1.86,10.25,10.25,0,0,1,.8-1.35,4.56,4.56,0,0,1,.79-1.07c.11.06-.94,1.65-2.09,4.46a30.88,30.88,0,0,0-1.57,5.09,35.46,35.46,0,0,0-.75,6.46,35.36,35.36,0,0,0,.57,6.48,32.19,32.19,0,0,0,1.44,5.13C62.76,32.29,63.77,33.9,63.66,34Z"/><path class="cls-2" d="M45.94,38a7.21,7.21,0,0,1-.84-1.24,15.27,15.27,0,0,1-.86-1.54c-.3-.62-.68-1.31-1-2.12a35.21,35.21,0,0,1-1.88-5.79,39.7,39.7,0,0,1-.92-7.4A40.37,40.37,0,0,1,41,12.44a36.13,36.13,0,0,1,1.62-5.87c.28-.82.63-1.53.9-2.16a15.41,15.41,0,0,1,.79-1.58,6.07,6.07,0,0,1,.79-1.27c.12.06-.93,1.92-2,5.17a36.76,36.76,0,0,0-1.46,5.82,42.05,42.05,0,0,0-.54,7.31A43.37,43.37,0,0,0,42,27.15a37.58,37.58,0,0,0,1.72,5.75C44.93,36.09,46.06,37.91,45.94,38Z"/><path class="cls-1" d="M196.23,84.25v31.4H135.48V84.25Z"/><path class="cls-2" d="M0,100.24c0,.27,0,.55,0,.83a18,18,0,0,0,18.07,16.85H199.06v-2.27H156.11a15.7,15.7,0,0,1,0-31.4h42.95V80.91l-181,.61A18.11,18.11,0,0,0,0,100.24Z"/><path class="cls-2" d="M196.23,100.37c0,.18-12.49.33-27.9.33s-27.9-.15-27.9-.33,12.49-.34,27.9-.34S196.23,100.18,196.23,100.37Z"/><path class="cls-2" d="M195.35,107.44c0,.18-11.82.33-26.4.33s-26.4-.15-26.4-.33,11.82-.33,26.4-.33S195.35,107.26,195.35,107.44Z"/><path class="cls-2" d="M196.23,113.91c0,.18-10.63.33-23.73.33s-23.74-.15-23.74-.33,10.63-.33,23.74-.33S196.23,113.73,196.23,113.91Z"/><path class="cls-2" d="M196.23,94c0,.18-12.23.33-27.33.33s-27.33-.15-27.33-.33,12.24-.33,27.33-.33S196.23,93.83,196.23,94Z"/><path class="cls-2" d="M195.35,87.65c0,.18-10.89.33-24.32.33s-24.33-.15-24.33-.33,10.89-.33,24.33-.33S195.35,87.47,195.35,87.65Z"/><path class="cls-3" d="M21.93,82.05a42.38,42.38,0,0,0-3.84,4.57,23.25,23.25,0,0,0,.32,26.91A42,42,0,0,0,22.36,118a6.41,6.41,0,0,1-1.31-1,20.26,20.26,0,0,1-3-3.24,22.9,22.9,0,0,1-.32-27.45A20.59,20.59,0,0,1,20.65,83,6.43,6.43,0,0,1,21.93,82.05Z"/><path class="cls-3" d="M15.82,81.38A40.29,40.29,0,0,0,12,86a23.25,23.25,0,0,0,.32,26.91,42,42,0,0,0,3.95,4.48,6.41,6.41,0,0,1-1.31-1,20.26,20.26,0,0,1-3-3.24,22.9,22.9,0,0,1-.32-27.45,20.59,20.59,0,0,1,2.94-3.31A6.28,6.28,0,0,1,15.82,81.38Z"/><path class="cls-3" d="M138.76,82.05a39.72,39.72,0,0,0-3.84,4.57,23.25,23.25,0,0,0,.32,26.91,40.72,40.72,0,0,0,3.95,4.48,6.1,6.1,0,0,1-1.31-1,20.26,20.26,0,0,1-3-3.24,22.92,22.92,0,0,1-.33-27.45A20.56,20.56,0,0,1,137.48,83,6.43,6.43,0,0,1,138.76,82.05Z"/><path class="cls-3" d="M132.64,81.38A41,41,0,0,0,128.8,86a23.25,23.25,0,0,0,.32,26.91,42,42,0,0,0,3.95,4.48,6.41,6.41,0,0,1-1.31-1,20.26,20.26,0,0,1-3-3.24,22.9,22.9,0,0,1-.32-27.45,20.59,20.59,0,0,1,2.94-3.31A6.43,6.43,0,0,1,132.64,81.38Z"/><path class="cls-3" d="M42.53,104.65l-.18-12.77a8.84,8.84,0,0,0-.45-3.28,3.09,3.09,0,0,0-2.42-2c-1.6-.71-4.09.63-5.21,2.47A12.1,12.1,0,0,0,33,95.27a89.46,89.46,0,0,0,.49,10.09A11.62,11.62,0,0,0,34.7,110a4.33,4.33,0,0,0,3.89,2.34,4.38,4.38,0,0,0,3.41-3A12.85,12.85,0,0,0,42.53,104.65Z"/><path class="cls-3" d="M112.8,101c0,.18-13.08.33-29.21.33s-29.22-.15-29.22-.33,13.08-.33,29.22-.33S112.8,100.8,112.8,101Z"/><polygon class="cls-3" points="30.41 80.79 30.07 51.03 46.27 51.03 46.83 80.79 30.41 80.79"/><path class="cls-2" d="M45.31,56.33c0,.18-3.37.33-7.52.33s-7.53-.15-7.53-.33S33.63,56,37.79,56,45.31,56.14,45.31,56.33Z"/><path class="cls-2" d="M45.31,60.92c0,.18-3.37.33-7.52.33s-7.53-.15-7.53-.33,3.37-.33,7.53-.33S45.31,60.74,45.31,60.92Z"/><path class="cls-2" d="M45.31,65.51c0,.19-3.37.34-7.52.34s-7.53-.15-7.53-.34,3.37-.33,7.53-.33S45.31,65.33,45.31,65.51Z"/><path class="cls-2" d="M45.31,70.11c0,.18-3.37.33-7.52.33s-7.53-.15-7.53-.33,3.37-.33,7.53-.33S45.31,69.92,45.31,70.11Z"/><path class="cls-2" d="M45.31,74.7c0,.18-3.37.33-7.52.33s-7.53-.15-7.53-.33,3.37-.33,7.53-.33S45.31,74.52,45.31,74.7Z"/><path class="cls-1" d="M29.21,50.24H208.77c2.21,9.86,1.9,20.7,0,32.17H30V80.22H40.9a5.16,5.16,0,0,0,5.16-5.15V57.26A5.16,5.16,0,0,0,40.9,52.1H29.21Z"/><path class="cls-4" d="M71.66,66.35h3a.63.63,0,0,1,.64.64,1.12,1.12,0,0,1,0,.2c-.06.25-.13.5-.21.76a8.43,8.43,0,0,1-1.87,3.39,3.56,3.56,0,0,1-2.56,1.32,2.3,2.3,0,0,1-.36,0,3,3,0,0,1-2-1.48,6.76,6.76,0,0,1-.89-3.6A9.54,9.54,0,0,1,67.71,65a8.68,8.68,0,0,1,1.77-3.48,3.65,3.65,0,0,1,2.7-1.43,2.61,2.61,0,0,1,1.14.26,3.68,3.68,0,0,1,1.75,2.19.59.59,0,0,1,.07.29.66.66,0,0,1-.09.33.61.61,0,0,1-.55.32.76.76,0,0,1-.21,0,.62.62,0,0,1-.41-.41l0-.05a3.37,3.37,0,0,0-.36-.71,1.69,1.69,0,0,0-1.44-.86,1.72,1.72,0,0,0-1,.36,5.39,5.39,0,0,0-1.63,2.35,8.92,8.92,0,0,0-.71,3.38,6,6,0,0,0,.52,2.66,1.74,1.74,0,0,0,1.56,1.17,2.12,2.12,0,0,0,1.45-.87,8,8,0,0,0,1.54-2.78c-1.38,0-2.1,0-2.15,0q-.7-.11-.72-.72a.71.71,0,0,1,.06-.22A.69.69,0,0,1,71.66,66.35Z"/><path class="cls-4" d="M81.85,60.5a.93.93,0,0,1,.08.22q.19.66,2.12,11.12a.5.5,0,0,1,0,.16.63.63,0,0,1-.09.33.6.6,0,0,1-.54.33h-.1a.6.6,0,0,1-.49-.45l-.72-3.7H78.45l-1.77,3.72-.06.12a.7.7,0,0,1-.55.31.6.6,0,0,1-.35-.1.63.63,0,0,1-.3-.54.48.48,0,0,1,0-.2L76,70.61q3.87-8.46,4.63-10a.68.68,0,0,1,.62-.45.66.66,0,0,1,.59.32ZM81.05,63h0l-2,4.2h2.82Z"/><path class="cls-4" d="M91.87,72.66H86.46a.62.62,0,0,1-.35-.1,1,1,0,0,1-.31-.68h0q0-.33,1.5-11.08a.85.85,0,0,1,0-.23.59.59,0,0,1,.58-.4.61.61,0,0,1,.3.08.58.58,0,0,1,.34.57c0,.49-.17,1.5-.37,3q-.93,7.09-1,7.49h4.6a1,1,0,0,1,.35.07.6.6,0,0,1,.41.6.65.65,0,0,1-.7.66Z"/><path class="cls-4" d="M99.27,60.5l.08.22q.2.66,2.11,11.12a.5.5,0,0,1,0,.16.63.63,0,0,1-.09.33.58.58,0,0,1-.53.33h-.1a.6.6,0,0,1-.5-.45l-.72-3.7H95.87l-1.78,3.72a.61.61,0,0,1,0,.12.72.72,0,0,1-.56.31.63.63,0,0,1-.64-.64.48.48,0,0,1,0-.2c.11-.25.29-.66.55-1.21q3.87-8.46,4.63-10a.67.67,0,0,1,1.21-.13ZM98.46,63h0l-2,4.2h2.82Z"/><path class="cls-4" d="M107.89,66.89l1,2.71c.56,1.54.84,2.35.84,2.44a.59.59,0,0,1-.11.33.62.62,0,0,1-.54.29.57.57,0,0,1-.53-.43l-.11-.28q-.44-1-1.44-3.81l-3.07,4.18a.74.74,0,0,1-.57.34.66.66,0,0,1-.33-.09.58.58,0,0,1-.31-.54.53.53,0,0,1,0-.13,1.67,1.67,0,0,1,.32-.53q1.55-2,3.4-4.73l-.37-1c-1.15-3.08-1.73-4.68-1.73-4.78a.63.63,0,0,1,.09-.33.56.56,0,0,1,.52-.32.62.62,0,0,1,.6.36l1.81,4.87L111,60.49a.69.69,0,0,1,.57-.3.59.59,0,0,1,.61.64.89.89,0,0,1-.06.3Z"/><path class="cls-4" d="M121.28,60.22a.66.66,0,0,1,.3.07.64.64,0,0,1,.35.56q-1.34,10.49-1.47,11.34a6.85,6.85,0,0,1-1.16,3,4.2,4.2,0,0,1-3.59,1.77,4.3,4.3,0,0,1-1.73-.46,3.82,3.82,0,0,1-1.91-1.68.64.64,0,0,1-.07-.31.72.72,0,0,1,.08-.32.62.62,0,0,1,.56-.33.65.65,0,0,1,.49.27,3.49,3.49,0,0,0,2.77,1.58,2.76,2.76,0,0,0,2.15-1.09,6.06,6.06,0,0,0,1.2-3.4,3.35,3.35,0,0,1-.8.84,3.2,3.2,0,0,1-1.94.64l-.37,0a2.91,2.91,0,0,1-2-1.47,6.71,6.71,0,0,1-.9-3.61c0-.66,0-1.33.09-2,.1-1.09.34-2.65.73-4.66a.6.6,0,0,1,.06-.19.59.59,0,0,1,.58-.44.61.61,0,0,1,.31.09.57.57,0,0,1,.32.51,23.37,23.37,0,0,1-.3,2.47,34.52,34.52,0,0,0-.42,3.77A7.65,7.65,0,0,0,115,70c.37.88.91,1.32,1.6,1.32l.22,0A2.91,2.91,0,0,0,118.48,70a8.14,8.14,0,0,0,1.34-3l.82-6.16a.9.9,0,0,1,.08-.28A.59.59,0,0,1,121.28,60.22Z"/><path class="cls-3" d="M202,82.83c-.18,0-.33-7.39-.33-16.5s.15-16.5.33-16.5.33,7.38.33,16.5S202.2,82.83,202,82.83Z"/><path class="cls-2" d="M55.09,82.83c-.18,0-.33-7.39-.33-16.5s.15-16.5.33-16.5.33,7.38.33,16.5S55.27,82.83,55.09,82.83Z"/><path class="cls-3" d="M205.17,82.83c-.18,0-.33-7.39-.33-16.5s.15-16.5.33-16.5.33,7.38.33,16.5S205.35,82.83,205.17,82.83Z"/><path class="cls-2" d="M52.15,82.83c-.19,0-.33-7.39-.33-16.5s.14-16.5.33-16.5.33,7.38.33,16.5S52.33,82.83,52.15,82.83Z"/><path class="cls-2" d="M158.48,55.26l0,0,19,15.31.17.13-.21.06-2.52.66-16,4.21h-.07l-14.52-6.16-4.11-1.76-1.09-.47-.27-.13-.09,0s0,0,.09,0l.29.11,1.09.44,4.14,1.71,14.55,6.09h-.06l16-4.22,2.53-.66,0,.19L158.36,55.33l0,0v0Z"/><polygon class="cls-2" points="175.72 68.13 176.75 69.11 178.14 68.81 177.53 70.09 178.25 71.32 176.84 71.14 175.89 72.2 175.63 70.8 174.33 70.23 175.57 69.55 175.72 68.13"/><polygon class="cls-2" points="157.51 74.17 158.22 74.75 159.11 74.51 158.76 75.36 159.28 76.13 158.36 76.06 157.79 76.79 157.56 75.89 156.7 75.58 157.48 75.08 157.51 74.17"/><polygon class="cls-2" points="137.41 65.92 138.53 65.99 139.23 65.1 139.51 66.19 140.57 66.58 139.62 67.19 139.58 68.31 138.71 67.59 137.62 67.9 138.04 66.85 137.41 65.92"/><polygon class="cls-2" points="184.23 55.5 185.35 55.57 186.05 54.69 186.33 55.78 187.39 56.17 186.44 56.77 186.4 57.9 185.53 57.18 184.44 57.49 184.85 56.44 184.23 55.5"/><polygon class="cls-2" points="157.56 54.76 158.28 54.81 158.73 54.24 158.91 54.94 159.58 55.19 158.98 55.57 158.95 56.29 158.39 55.83 157.7 56.03 157.97 55.36 157.56 54.76"/><path class="cls-2" d="M185.81,56.29c0,.08-6.14-.13-13.71-.45s-13.71-.65-13.7-.72,6.14.13,13.71.45S185.81,56.22,185.81,56.29Z"/><path class="cls-2" d="M192.7,50H10.6c-2.39-5.41-3-10.55,0-15.15H192.7A17.53,17.53,0,0,1,192.7,50Z"/><rect class="cls-5" x="48.31" y="39.14" width="98.66" height="5.52"/><path class="cls-2" d="M17.59,50.05a5.32,5.32,0,0,1-1.44-1.84,13.29,13.29,0,0,1-1.66-5.38,13.14,13.14,0,0,1,.7-5.58,5.31,5.31,0,0,1,1.09-2.06,17,17,0,0,1-.65,2.2,15.78,15.78,0,0,0-.48,5.39A15.49,15.49,0,0,0,16.57,48,17.77,17.77,0,0,1,17.59,50.05Z"/><path class="cls-2" d="M21.53,50.05a5.32,5.32,0,0,1-1.44-1.84,13.29,13.29,0,0,1-1.66-5.38,13.14,13.14,0,0,1,.7-5.58,5.31,5.31,0,0,1,1.09-2.06,17,17,0,0,1-.65,2.2,15.78,15.78,0,0,0-.48,5.39A15.49,15.49,0,0,0,20.51,48,15.93,15.93,0,0,1,21.53,50.05Z"/><path class="cls-3" d="M185.34,49.69c-.21-.07,1.28-3.23,1.28-7.41s-1.4-7.36-1.2-7.42,1.91,3.06,1.86,7.43S185.45,49.8,185.34,49.69Z"/><path class="cls-3" d="M182,49.66c-.2,0,.56-3.25.54-7.26s-.76-7.21-.56-7.26,1.23,3.14,1.23,7.26S182.1,49.71,182,49.66Z"/></g></g></svg>