<svg xmlns="http://www.w3.org/2000/svg" viewBox="0 0 197.43 103.72"><defs><style>.cls-1{fill:#fff;}.cls-1,.cls-2,.cls-3{fill-rule:evenodd;}.cls-2{fill:#263138;}.cls-3{fill:#dfdfdf;}.cls-4{fill:#ebebeb;}</style></defs><g id="Layer_2" data-name="Layer 2"><g id="Layer_14" data-name="Layer 14"><polygon class="cls-1" points="197.13 0.41 0.43 0.41 0.43 84.21 20.72 84.21 22.86 102.67 38.01 84.21 197.13 84.21 197.13 0.41"/><path class="cls-2" d="M197.13.41s0,.47,0,1.42,0,2.41,0,4.27c0,3.79,0,9.36.08,16.54,0,14.47.09,35.44.16,61.57v.3h-.3L38,84.63l.33-.15L23.19,102.94l-.63.78-.12-1c-.68-5.85-1.41-12.13-2.15-18.46l.43.38H0v-.43C0,54.78,0,26.52,0,.41V0H.43L142,.19l40.66.12,10.81,0,2.78,0c.62,0,.92,0,.92,0l-1,0-2.82,0L182.45.5,141.68.62.43.81l.4-.4c0,26.11,0,54.37,0,83.8l-.43-.43H21.1l0,.38c.74,6.33,1.47,12.61,2.15,18.46l-.76-.22L37.69,83.94l.12-.15H38l159.12.12-.3.3c.07-26,.13-47,.16-61.39,0-7.21.06-12.8.08-16.6,0-1.89,0-3.33,0-4.33S197.13.41,197.13.41Z"/><path class="cls-3" d="M173.7,26.85H95.59a3.95,3.95,0,1,1,0-7.89H173.7a3.95,3.95,0,0,1,0,7.89Z"/><path class="cls-3" d="M173.7,44.45H95.59a3.95,3.95,0,1,1,0-7.89H173.7a3.95,3.95,0,0,1,0,7.89Z"/><path class="cls-3" d="M173.7,62.05H95.59a3.95,3.95,0,1,1,0-7.89H173.7a3.95,3.95,0,0,1,0,7.89Z"/><rect class="cls-4" x="14.72" y="11.49" width="58.03" height="58.03" rx="7.35"/><path class="cls-1" d="M20.42,57.69l-1.26-1.06L30.9,42.69a4.2,4.2,0,0,1,5.77-1l7,4.64L51.8,36A4.24,4.24,0,0,1,55,34.37a4.3,4.3,0,0,1,3.28,1.36l10,10.86L67.08,47.7,57,36.85A2.56,2.56,0,0,0,55,36a2.59,2.59,0,0,0-1.94,1L44,48.52,35.76,43a2.6,2.6,0,0,0-3.57.65Z"/><path class="cls-1" d="M43.74,26.55a5.19,5.19,0,1,1-5.19-5.18A5.19,5.19,0,0,1,43.74,26.55Z"/></g></g></svg>