<svg xmlns="http://www.w3.org/2000/svg" viewBox="0 0 82.94 95.78"><defs><style>.cls-1{fill:#fff;}.cls-1,.cls-2{fill-rule:evenodd;}.cls-2{fill:#263138;}</style></defs><g id="Layer_2" data-name="Layer 2"><g id="Layer_8" data-name="Layer 8"><polygon class="cls-1" points="0.36 0.36 82.51 0.36 82.51 82.51 74.65 82.51 74.65 94.75 62.41 82.51 0.36 82.51 0.36 0.36"/><path class="cls-2" d="M.36.37S.39.9.41,1.9s0,2.51,0,4.42C.47,10.2.5,15.83.54,23c0,14.35.11,34.84.19,59.51l-.37-.37,62.05,0h.18l.12.12L75,94.44l-.72.31c0-3.64,0-7.52,0-11.44V82.08h8.29l-.43.43c0-30.16,0-58.25.06-82.14l.37.36L23,.54,6.32.45,1.91.41.36.37s.49,0,1.47,0l4.34,0L22.79.19,82.51,0h.36V.37c0,23.89,0,52,.07,82.14v.43H74.65l.43-.43V95.78l-.73-.73L62.12,82.81l.29.12-62-.06H0v-.36C.08,57.75.14,37.18.19,22.77c0-7.13.07-12.74.09-16.6,0-1.88,0-3.33,0-4.34S.36.37.36.37Z"/></g></g></svg>