<svg xmlns="http://www.w3.org/2000/svg" viewBox="0 0 101.82 109.74"><defs><style>.cls-1{fill:#fff;}.cls-1,.cls-2{fill-rule:evenodd;}.cls-2{fill:#263138;}.cls-3{fill:#445964;}</style></defs><g id="Layer_2" data-name="Layer 2"><g id="Layer_6" data-name="Layer 6"><path class="cls-1" d="M93.68.35H8.2A7.77,7.77,0,0,0,.43,8.13V87A7.77,7.77,0,0,0,8.2,94.73H78.37l14.06,14.06V94.73h1.25A7.77,7.77,0,0,0,101.46,87V8.13A7.78,7.78,0,0,0,93.68.35Z"/><path class="cls-2" d="M93.68.35A6.08,6.08,0,0,1,95.6.54a7.82,7.82,0,0,1,4.59,3.12,8,8,0,0,1,1.39,3.89c.06,1.53,0,3.16,0,4.94q0,5.35.05,12.23c0,9.16.06,20.27.09,33,0,6.36,0,13.13,0,20.26v5.42c0,.91,0,1.83,0,2.76a10.05,10.05,0,0,1-.27,2.86,8.1,8.1,0,0,1-3.37,4.73,7.88,7.88,0,0,1-2.76,1.18,13.83,13.83,0,0,1-3,.19l.38-.38c0,4.4,0,9.18,0,14.06v.95l-.67-.67L78.09,95l.28.12-60.21,0H7.92A8.18,8.18,0,0,1,.24,88.88,9.93,9.93,0,0,1,0,86.3V83.81c0-1.66,0-3.31,0-5V69.07C0,56.14,0,43.66,0,31.78q0-8.93,0-17.37c0-1.41,0-2.81,0-4.19V8.15A8.48,8.48,0,0,1,.35,6,8.12,8.12,0,0,1,6,.3,14.77,14.77,0,0,1,10,0H21.39L35.5.05,78.07.19,89.65.27l3,0c.68,0,1,0,1,0s-.34,0-1,.05l-3,0L78.07.52,35.5.66,21.39.68,13.88.7H10A13.61,13.61,0,0,0,6.22,1,7.37,7.37,0,0,0,1.06,6.21a15,15,0,0,0-.26,4c0,1.38,0,2.78,0,4.19q0,8.44,0,17.37c0,11.88,0,24.36,0,37.29V83.81a26,26,0,0,0,.22,4.88A7.32,7.32,0,0,0,8,94.29l10.21,0,60.21,0h.17l.12.12,14,14.07-.67.27c0-4.88,0-9.66,0-14.06v-.37h.37a13.72,13.72,0,0,0,2.83-.17,7.2,7.2,0,0,0,2.52-1.06,7.45,7.45,0,0,0,3.07-4.3,9.18,9.18,0,0,0,.25-2.68c0-.93,0-1.85,0-2.76V78c0-7.13,0-13.9,0-20.26,0-12.72.06-23.83.09-33q0-6.87.05-12.23c0-1.77,0-3.43,0-4.92A7.67,7.67,0,0,0,95.57.66,15.78,15.78,0,0,0,93.68.35Z"/><rect class="cls-3" x="17.2" y="19.27" width="68.79" height="57.9" rx="12.61"/><path class="cls-1" d="M47.08,61a2.69,2.69,0,0,1-4-2.33V37.81a2.69,2.69,0,0,1,4-2.32l9,5.2,9,5.2a2.68,2.68,0,0,1,0,4.65l-9,5.2Z"/></g></g></svg>