<svg xmlns="http://www.w3.org/2000/svg" viewBox="0 0 175.83 131.81"><defs><style>.cls-1{fill:#fff;}.cls-1,.cls-2,.cls-4,.cls-5{fill-rule:evenodd;}.cls-2{fill:#dfdfdf;}.cls-3{fill:#ff4600;}.cls-4{opacity:0.3;}.cls-5{fill:#263138;}</style></defs><g id="Layer_2" data-name="Layer 2"><g id="Layer_13" data-name="Layer 13"><path class="cls-1" d="M167.33.38H10.74A10.31,10.31,0,0,0,.43,10.69V101.8a9,9,0,0,0,9,9H137.09l20.07,20.07V110.84h7.44a10.91,10.91,0,0,0,10.9-10.91V8.55A8.17,8.17,0,0,0,167.33.38Z"/><path class="cls-2" d="M174.58,21.84H1.35a.92.92,0,0,1-.92-.92V11.35a11,11,0,0,1,11-11H167.53a8,8,0,0,1,8,8V20.92A.92.92,0,0,1,174.58,21.84Z"/><rect class="cls-3" x="18.3" y="39.44" width="52.41" height="52.41" rx="7.35"/><path class="cls-4" d="M66.13,71.64A12.61,12.61,0,0,1,64.39,70l-4.52-4.68-3.09-3.26a2.74,2.74,0,0,0-4,.11l-7.3,9.26-.56.72-.25.31-.33-.22-5.66-3.79-1.32-.88A2.64,2.64,0,0,0,36,67.2a2.73,2.73,0,0,0-2.26,1.12h0l-7.78,9-2.24,2.5c-.53.57-.83.86-.86.83a4.52,4.52,0,0,1,.67-1l2.08-2.64,7.55-9.21,0,0a3.49,3.49,0,0,1,2.89-1.48,3.55,3.55,0,0,1,1.7.46c.49.31.9.59,1.37.9l5.68,3.77-.58.09.57-.72,7.38-9.25a3.46,3.46,0,0,1,5.13-.08l3,3.34,4.31,4.87A12,12,0,0,1,66.13,71.64Z"/><path class="cls-4" d="M44.5,53.05a4.69,4.69,0,1,1-4.68-4.69A4.68,4.68,0,0,1,44.5,53.05Z"/><path class="cls-5" d="M167.33.38a6.72,6.72,0,0,1,2.32.28,8.24,8.24,0,0,1,5.12,4.27,9.8,9.8,0,0,1,.86,4.92c0,1.83,0,3.84,0,6,0,4.34,0,9.33.05,14.92,0,11.2,0,24.82.08,40.49,0,7.84,0,16.2,0,25,0,2.17.17,4.53-.67,6.74a12.06,12.06,0,0,1-4.08,5.65,11.87,11.87,0,0,1-6.69,2.48c-2.41.07-4.78,0-7.22,0l.35-.35c0,6.27,0,13.08,0,20.06v.91l-.64-.64-20.08-20,.28.11-114.42,0H11.41a19.72,19.72,0,0,1-3.81-.18,9.51,9.51,0,0,1-6.19-4.33,9.39,9.39,0,0,1-1.3-3.61A31.47,31.47,0,0,1,0,99.41q0-14.7,0-28.93c0-19,0-37.25,0-54.68,0-1.09,0-2.17,0-3.26a26,26,0,0,1,.1-3.28A10.68,10.68,0,0,1,3,3.36,10.86,10.86,0,0,1,8.6.21,16.55,16.55,0,0,1,11.79,0H14.9l24,0L82,.08l62.42.13,17,.08,4.41.05c1,0,1.5,0,1.5,0s-.51,0-1.5,0l-4.41,0-17,.08L82,.68,38.92.74l-24,0A43.16,43.16,0,0,0,8.75,1,10,10,0,0,0,3.53,3.89,9.78,9.78,0,0,0,.92,9.36a25.62,25.62,0,0,0-.1,3.18V15.8c0,17.43,0,35.72,0,54.68V99.41A32.91,32.91,0,0,0,1,103a8.64,8.64,0,0,0,6.82,7.22,18.88,18.88,0,0,0,3.64.17H22.67l114.42,0h.16l.12.12,20,20.08-.63.26c0-7,0-13.79,0-20.06v-.36h.36c2.42,0,4.85,0,7.19,0a11.25,11.25,0,0,0,6.31-2.33,11.39,11.39,0,0,0,3.87-5.33c.8-2.07.62-4.3.65-6.52,0-8.82,0-17.18,0-25,0-15.67.06-29.29.09-40.49,0-5.59,0-10.58,0-14.92,0-2.16,0-4.17,0-6A9.55,9.55,0,0,0,174.58,5a8.14,8.14,0,0,0-5-4.26A11.77,11.77,0,0,0,167.33.38Z"/><path class="cls-1" d="M15.53,10.74a3.69,3.69,0,1,1-3.69-3.69A3.69,3.69,0,0,1,15.53,10.74Z"/><path class="cls-1" d="M26.62,10.74a3.69,3.69,0,1,1-3.69-3.69A3.69,3.69,0,0,1,26.62,10.74Z"/><path class="cls-1" d="M37.71,10.74A3.69,3.69,0,1,1,34,7.05,3.69,3.69,0,0,1,37.71,10.74Z"/><path class="cls-5" d="M152.08,49.69c0,.23-14.31.42-32,.42s-32-.19-32-.42,14.31-.43,32-.43S152.08,49.45,152.08,49.69Z"/><path class="cls-5" d="M152.08,61.8c0,.24-14.31.43-32,.43s-32-.19-32-.43,14.31-.43,32-.43S152.08,61.56,152.08,61.8Z"/><path class="cls-5" d="M152.08,73.91c0,.24-14.31.43-32,.43s-32-.19-32-.43,14.31-.42,32-.42S152.08,73.68,152.08,73.91Z"/></g></g></svg>