<svg xmlns="http://www.w3.org/2000/svg" viewBox="0 0 117.55 133.25"><defs><style>.cls-1,.cls-3{fill:#fff;}.cls-2{fill:#263138;}.cls-2,.cls-3{fill-rule:evenodd;}</style></defs><g id="Layer_2" data-name="Layer 2"><g id="Layer_5" data-name="Layer 5"><circle class="cls-1" cx="58.99" cy="58.91" r="58.56" transform="translate(-11.94 102.72) rotate(-76.66)"/><path class="cls-2" d="M117.55,58.91s0-.32-.09-.95-.11-1.58-.19-2.77c0-.62-.07-1.3-.12-2s-.24-1.56-.37-2.44a43.05,43.05,0,0,0-1.22-6,56.21,56.21,0,0,0-6.49-15.53A58.54,58.54,0,0,0,69.73,1.74,53.81,53.81,0,0,0,62.37.89c-1.25,0-2.52-.17-3.79-.15l-3.85.2c-.65.05-1.3,0-1.95.13l-1.94.3c-1.29.21-2.61.37-3.91.64a62.18,62.18,0,0,0-7.75,2.27,61.21,61.21,0,0,0-7.59,3.34c-1.23.66-2.4,1.44-3.62,2.16a29.6,29.6,0,0,0-3.51,2.42,65.52,65.52,0,0,0-6.6,5.61,64.94,64.94,0,0,0-5.69,6.74,56.28,56.28,0,0,0-8.31,16,61.9,61.9,0,0,0-3,18.34,62.23,62.23,0,0,0,3,18.35c.53,1.44,1.06,2.88,1.58,4.31l2,4.1a14.63,14.63,0,0,0,1.09,2l1.17,1.93,1.17,1.91,1.33,1.79a66.21,66.21,0,0,0,5.7,6.75,65.61,65.61,0,0,0,6.6,5.6A29.6,29.6,0,0,0,28,108c1.21.73,2.39,1.5,3.62,2.17a59.68,59.68,0,0,0,7.59,3.33,60.58,60.58,0,0,0,7.75,2.28c1.3.27,2.62.42,3.92.64l1.94.3c.64.08,1.29.08,1.94.12l3.85.2c1.28,0,2.54-.1,3.79-.14a55,55,0,0,0,7.36-.85,58.51,58.51,0,0,0,39.34-27.4,56,56,0,0,0,6.49-15.52,43.34,43.34,0,0,0,1.22-6c.13-.88.29-1.7.37-2.44s.09-1.44.12-2c.08-1.2.14-2.12.19-2.78s.09-1,.09-1,0,.32,0,1-.06,1.59-.1,2.79c0,.62-.06,1.3-.09,2.06s-.21,1.57-.33,2.46a41.88,41.88,0,0,1-1.15,6.08,55.4,55.4,0,0,1-6.4,15.69,58.83,58.83,0,0,1-39.62,27.84,53.25,53.25,0,0,1-7.44.89c-1.27,0-2.55.17-3.84.15l-3.9-.19c-.66,0-1.32,0-2-.12l-2-.3c-1.31-.21-2.65-.36-4-.63a62.73,62.73,0,0,1-7.86-2.3,61.29,61.29,0,0,1-7.7-3.36c-1.25-.68-2.44-1.46-3.68-2.19A31.27,31.27,0,0,1,24,106.28a66.24,66.24,0,0,1-6.7-5.68,66.8,66.8,0,0,1-5.78-6.83L10.13,92,8.94,90l-1.19-2a15,15,0,0,1-1.1-2l-2-4.16C4.11,80.44,3.58,79,3,77.52A63,63,0,0,1,0,58.9,62.69,62.69,0,0,1,3.05,40.29a57.27,57.27,0,0,1,8.44-16.24,66.89,66.89,0,0,1,5.79-6.83A66.33,66.33,0,0,1,24,11.54,29.26,29.26,0,0,1,27.54,9.1c1.23-.73,2.42-1.52,3.67-2.19a59.94,59.94,0,0,1,7.7-3.37,62.68,62.68,0,0,1,7.86-2.29c1.32-.27,2.66-.42,4-.64l2-.29c.66-.09,1.32-.08,2-.13L58.57,0c1.29,0,2.57.11,3.84.16A54.76,54.76,0,0,1,69.86,1a58.86,58.86,0,0,1,39.62,27.85,55.77,55.77,0,0,1,6.4,15.68A41.74,41.74,0,0,1,117,50.66c.12.89.27,1.71.33,2.46s.06,1.44.09,2.06c0,1.2.07,2.12.1,2.78S117.55,58.91,117.55,58.91Z"/><path class="cls-2" d="M48.29,81.55c2.8-.26,4.56-.73,5.29-1.43s1.1-2.56,1.1-5.62V55.81a11.63,11.63,0,0,0-.36-3.52,2.36,2.36,0,0,0-2.46-1.61,4.8,4.8,0,0,0-.85.08c-.27.05-1.06.26-2.36.63V50.17l1.68-.55q6.86-2.23,9.56-3.37a5.2,5.2,0,0,1,1.41-.47,2.27,2.27,0,0,1,.08.59V74.5q0,4.47,1.07,5.6c.72.76,2.35,1.25,4.88,1.45v1.1h-19v-1.1Zm6.23-52.38h0a4.08,4.08,0,1,1,5.78,5.75,4.08,4.08,0,0,1-5.78-5.75Z"/><path class="cls-3" d="M19.57,123.67a9.21,9.21,0,1,1-9.21-9.21A9.21,9.21,0,0,1,19.57,123.67Z"/><path class="cls-2" d="M19.57,123.67c-.09,0-.07-.82-.45-2.21a9.23,9.23,0,0,0-3.37-4.87,8.84,8.84,0,1,0,0,14.16,9.2,9.2,0,0,0,3.37-4.87c.38-1.39.36-2.21.45-2.21s.05.21.05.6a6.63,6.63,0,0,1-.18,1.69,9.09,9.09,0,0,1-3.33,5.27A9.5,9.5,0,0,1,2.6,129.37,9.57,9.57,0,0,1,2.6,118a9.51,9.51,0,0,1,13.51-1.87,9.12,9.12,0,0,1,3.33,5.27,6.66,6.66,0,0,1,.18,1.7C19.62,123.47,19.6,123.67,19.57,123.67Z"/></g></g></svg>