<svg xmlns="http://www.w3.org/2000/svg" viewBox="0 0 159.14 254.17"><defs><style>.cls-1{fill:#445964;}.cls-1,.cls-2{fill-rule:evenodd;}.cls-2{fill:#263138;}.cls-3{fill:#ff725d;}.cls-4{fill:#ff4600;}</style></defs><g id="Layer_2" data-name="Layer 2"><g id="Layer_18" data-name="Layer 18"><path class="cls-1" d="M64.6,177.68s-39.92-46-55-91.9S1.7,45.09,1.7,45.09,22,89.74,37.48,111.3s42.94,53.2,42.94,53.2Z"/><path class="cls-1" d="M72.56,52.25a2.33,2.33,0,0,0-4.33,1.48c2.43,16.14,7.7,54,7.49,78.59-.27,31.92,0,44.26,0,44.26H92.35s-2.95-66-6.71-86.1C83,76.38,77.42,60.72,72.56,52.25Z"/><path class="cls-1" d="M81.62,171.21A176,176,0,0,0,95.3,121.6c1.37-11.75-1.07-27.63-4.71-48.82a132,132,0,0,1-2.1-23.48,4,4,0,0,1,7.45-1.86c2,3.58,7.81,15.8,9.28,23.47,4,20.92,8.58,31.38,5.1,51.22S94,172.55,94,172.55Z"/><path class="cls-1" d="M96.59,172.55s43.84-94.21,46.88-108.18S156.84,18.18,158.05,20s3,18.83-4.86,38.28-41.63,117.13-41.63,117.13h-15Z"/><path class="cls-2" d="M76.82,168.34a10.17,10.17,0,0,1-1.23-.85c-.78-.59-2-1.41-3.39-2.59a154.4,154.4,0,0,1-11.79-10.4,197.57,197.57,0,0,1-31.8-40.82,267,267,0,0,1-21.71-47C4.7,60.4,3.09,55.27,2,51.72c-.53-1.78-.9-3.17-1.16-4.11a9.36,9.36,0,0,1-.34-1.45,8.79,8.79,0,0,1,.52,1.39l1.33,4.06c1.15,3.52,2.85,8.6,5.13,14.82A284.77,284.77,0,0,0,29.41,113.2,206.54,206.54,0,0,0,60.88,154c4.69,4.66,8.71,8.22,11.55,10.59,1.39,1.21,2.54,2.09,3.28,2.73A7.8,7.8,0,0,1,76.82,168.34Z"/><path class="cls-2" d="M81.62,123.14a15.59,15.59,0,0,1-.4-2.76c-.21-1.95-.48-4.49-.8-7.55-.7-6.38-1.78-15.17-3.33-24.82s-3.28-18.35-4.62-24.62c-.65-3-1.19-5.5-1.6-7.42a14.55,14.55,0,0,1-.49-2.75,15.77,15.77,0,0,1,.84,2.66c.49,1.73,1.14,4.24,1.89,7.37,1.51,6.24,3.34,14.93,4.9,24.61s2.54,18.5,3.06,24.9c.27,3.2.44,5.8.52,7.59A16.54,16.54,0,0,1,81.62,123.14Z"/><path class="cls-2" d="M91.89,46.7a7.37,7.37,0,0,1,.51,1.19c.34.89.77,2,1.32,3.5S95,54.78,95.6,57s1.49,4.71,2.13,7.55c.35,1.41.71,2.89,1.08,4.43s.63,3.17,1,4.85c.72,3.34,1.16,7,1.69,10.78a174.66,174.66,0,0,1,1,25,176.32,176.32,0,0,1-2.83,24.84c-.81,3.75-1.51,7.34-2.46,10.63-.46,1.64-.83,3.25-1.31,4.76s-1,3-1.4,4.35c-.84,2.78-1.86,5.21-2.67,7.37s-1.59,4-2.28,5.46L88,170.37a6.69,6.69,0,0,1-.6,1.16,6.8,6.8,0,0,1,.43-1.23c.36-.88.82-2,1.4-3.47s1.38-3.32,2.12-5.5,1.74-4.6,2.53-7.39l1.33-4.34c.46-1.51.82-3.12,1.26-4.76.91-3.28,1.58-6.85,2.36-10.6a181,181,0,0,0,2.74-24.7,181.26,181.26,0,0,0-1-24.84c-.5-3.79-.91-7.4-1.59-10.73-.32-1.67-.56-3.3-.91-4.84s-.7-3-1-4.42c-.59-2.84-1.39-5.34-2-7.56S93.9,53,93.37,51.51L92.23,48A5.48,5.48,0,0,1,91.89,46.7Z"/><path class="cls-2" d="M157.55,21.9a1.88,1.88,0,0,1,0,.42c0,.33-.11.73-.19,1.23-.19,1.07-.44,2.66-.87,4.68-.84,4.06-2.25,9.89-4.45,17s-5.17,15.37-8.72,24.49-7.65,19-11.54,29.63-7,20.87-9.86,30.23-5.53,17.76-8.12,24.69a158.16,158.16,0,0,1-6.93,16.11c-.89,1.87-1.7,3.26-2.22,4.22l-.62,1.08a1.54,1.54,0,0,1-.23.35s0-.14.15-.4l.53-1.12c.47-1,1.22-2.4,2.07-4.28,1.76-3.74,4.14-9.23,6.62-16.18s5.13-15.35,7.92-24.72,5.84-19.71,9.81-30.3,8-20.53,11.61-29.63S149.12,52,151.37,45s3.78-12.82,4.73-16.84c.48-2,.78-3.59,1-4.65.12-.48.21-.88.29-1.21A1.27,1.27,0,0,1,157.55,21.9Z"/><path class="cls-1" d="M22.37,1.09a3.78,3.78,0,0,0-6.22,3.85A108,108,0,0,0,21.66,19.1c6,12.81,23.73,58.77,32,84s20,72.32,20,72.32l17.7-2.87s-16.19-77.36-32-105.23C46.62,44.92,33.91,12.55,22.37,1.09Z"/><path class="cls-2" d="M58.52,118.89a10.27,10.27,0,0,1,.91,2.12c.53,1.39,1.24,3.41,2,5.94,1.62,5,3.62,12.1,5.63,19.93s3.67,15,4.84,20.13q.8,3.68,1.33,6.14a10.43,10.43,0,0,1,.36,2.27,11.31,11.31,0,0,1-.72-2.19c-.43-1.61-1-3.64-1.62-6.06-1.35-5.32-3.13-12.32-5.1-20.06s-3.89-14.88-5.36-20l-1.75-6A11.51,11.51,0,0,1,58.52,118.89Z"/><path class="cls-2" d="M82.53,174a2.32,2.32,0,0,1-.1-.47c-.05-.37-.12-.83-.2-1.4-.18-1.22-.35-3-.72-5.36-.65-4.64-1.81-11.34-3.71-19.52A279.94,279.94,0,0,0,69.51,119c-3.63-10.48-8.18-21.81-13.34-33.53C45.76,62,35.36,41.25,28.53,25.88,25.07,18.22,22.4,12,20.64,7.61c-.9-2.17-1.54-3.88-2-5-.2-.54-.36-1-.49-1.32A1.49,1.49,0,0,1,18,.79a2.73,2.73,0,0,1,.23.43l.57,1.28,2.15,5C22.84,11.78,25.6,18,29.13,25.61c7,15.28,17.47,36,27.9,59.45,5.17,11.74,9.71,23.1,13.3,33.63a266.58,266.58,0,0,1,8.11,28.41,195.76,195.76,0,0,1,3.43,19.62c.32,2.33.43,4.15.55,5.38,0,.57.08,1,.11,1.41A1.48,1.48,0,0,1,82.53,174Z"/><path class="cls-2" d="M91.34,172.55a20,20,0,0,1-.6-3c-.35-2.08-.81-4.82-1.37-8.13-1.22-6.86-3.09-16.31-5.76-26.58s-5.64-19.44-7.94-26c-1.12-3.16-2.06-5.78-2.76-7.77A17.78,17.78,0,0,1,72,98.2,18.3,18.3,0,0,1,73.25,101c.76,1.79,1.82,4.41,3,7.68a258.22,258.22,0,0,1,8.21,26A270.61,270.61,0,0,1,90,161.34c.5,3.45.89,6.25,1.08,8.19A18.71,18.71,0,0,1,91.34,172.55Z"/><rect class="cls-3" x="58.59" y="170.01" width="69.07" height="84.16"/><rect x="58.59" y="170.01" width="69.07" height="84.16"/><rect class="cls-4" x="44.34" y="170.01" width="61.28" height="84.16"/></g></g></svg>