<svg xmlns="http://www.w3.org/2000/svg" viewBox="0 0 82.94 95.78"><defs><style>.cls-1{fill:#fff;}.cls-1,.cls-2{fill-rule:evenodd;}.cls-2{fill:#263138;}</style></defs><g id="Layer_2" data-name="Layer 2"><g id="Layer_10" data-name="Layer 10"><polygon class="cls-1" points="82.57 0.36 0.43 0.36 0.43 82.51 8.28 82.51 8.28 94.75 20.52 82.51 82.57 82.51 82.57 0.36"/><path class="cls-2" d="M82.57.37s0,.48,0,1.46,0,2.46,0,4.34c0,3.86.06,9.47.1,16.6,0,14.41.11,35,.18,59.74v.36h-.37l-62,.06.3-.12L8.59,95.05l-.73.73V82.51l.42.43H0v-.43C0,52.35.05,24.26.06.37V0H.43L60.15.19,76.76.28l4.35,0c1,0,1.46,0,1.46,0L81,.41l-4.42,0L59.92.54.43.73.79.37c0,23.89,0,52,.07,82.14l-.43-.43H8.71V94.75L8,94.44,20.22,82.21l.13-.12h.17l62.05.06-.36.36c.07-24.67.14-45.16.18-59.51,0-7.17.08-12.8.1-16.68,0-1.91,0-3.38,0-4.41S82.57.37,82.57.37Z"/></g></g></svg>