<?xml version="1.0" encoding="UTF-8"?>
<!DOCTYPE svg PUBLIC "-//W3C//DTD SVG 1.1//EN" "http://www.w3.org/Graphics/SVG/1.1/DTD/svg11.dtd">
<!-- Creator: CorelDRAW 2021 (64-Bit) -->
<svg xmlns="http://www.w3.org/2000/svg" xml:space="preserve" width="2.40563in" height="1.52165in" version="1.1" style="shape-rendering:geometricPrecision; text-rendering:geometricPrecision; image-rendering:optimizeQuality; fill-rule:evenodd; clip-rule:evenodd"
viewBox="0 0 155.7 98.48"
 xmlns:xlink="http://www.w3.org/1999/xlink"
 xmlns:xodm="http://www.corel.com/coreldraw/odm/2003">
 <defs>
  <style type="text/css">
   <![CDATA[
    .fil0 {fill:#FF4600;fill-rule:nonzero}
   ]]>
  </style>
 </defs>
 <g id="Speech_x0020_Bubble">
  <metadata id="CorelCorpID_0Corel-Layer"/>
  <path class="fil0" d="M145.42 82.53l9.57 0.08c1.31,-1.14 0.34,0.49 0.67,-1.29 -0.54,-4.29 -2.75,-7.99 -3.1,-12.24l-0.02 -30.24c-0.04,-13.72 0.64,-7.95 1.36,-12.53 -3.38,-3.88 -30.2,-11.85 -37.82,-14.58 -47.09,-16.87 -32.78,-14.91 -79.41,1.85 -7.23,2.6 -33.52,11.48 -36.66,14.76 0.67,4.36 3.42,4.15 7.77,5.76 10.41,3.85 60.31,23.83 65.37,24.6 8.91,1.36 14.71,-1.85 21.44,-4.73l36.44 -15.26c4.66,-1.99 13.76,-6.56 18.23,-7.28 0.01,19.22 1.87,35.3 -3.81,51.08zm-118.54 -28.67c0.48,23.34 -2.4,24.01 15.74,32.13 37.34,16.72 31.28,16.71 69.33,-0.31 18.12,-8.11 14.34,-8.91 15.09,-31.72 -14.66,-0.67 -14.71,-0.12 -26.22,4.68 -22.44,9.37 -23.18,10.11 -47.67,0.09 -14.56,-5.96 -10.96,-5.02 -26.28,-4.86z"/>
 </g>
</svg>
