<?xml version="1.0" encoding="UTF-8"?>
<!DOCTYPE svg PUBLIC "-//W3C//DTD SVG 1.1//EN" "http://www.w3.org/Graphics/SVG/1.1/DTD/svg11.dtd">
<!-- Creator: CorelDRAW 2021 (64-Bit) -->
<svg xmlns="http://www.w3.org/2000/svg" xml:space="preserve" width="4.302in" height="0.851961in" version="1.1" style="shape-rendering:geometricPrecision; text-rendering:geometricPrecision; image-rendering:optimizeQuality; fill-rule:evenodd; clip-rule:evenodd"
viewBox="0 0 719.18 142.43"
 xmlns:xlink="http://www.w3.org/1999/xlink"
 xmlns:xodm="http://www.corel.com/coreldraw/odm/2003">
 <defs>
  <style type="text/css">
   <![CDATA[
    .fil0 {fill:#4D4D4D}
    .fil1 {fill:#999999}
    .fil2 {fill:#FF4600}
    .fil3 {fill:#FF4600;fill-rule:nonzero}
   ]]>
  </style>
 </defs>
 <g id="Layer_x0020_1">
  <metadata id="CorelCorpID_0Corel-Layer"/>
  <g id="_2331305431488">
   <g>
    <path class="fil0" d="M124.25 19.13c56.63,0 102.8,44.74 105.11,100.8l19.14 0c-2.32,-66.63 -57.06,-119.93 -124.25,-119.93 -67.19,0 -121.93,53.3 -124.25,119.93l19.14 0c2.31,-56.06 48.48,-100.8 105.11,-100.8z"/>
    <path class="fil1" d="M91.27 119.93c2.27,-36.26 32.4,-64.97 69.24,-64.97 36.84,0 66.97,28.71 69.24,64.97l18.72 0c-2.29,-46.6 -40.8,-83.67 -87.96,-83.67 -47.16,0 -85.67,37.07 -87.96,83.67l18.72 0z"/>
    <path class="fil2" d="M199.06 72.07c-26.03,0.59 -46.99,21.75 -47.26,47.86l18.43 0c0.27,-15.93 12.98,-28.83 28.83,-29.42 0.37,-0.01 0.75,-0.02 1.13,-0.02 16.37,0 29.68,13.13 29.96,29.44l18.43 0c-0.28,-26.49 -21.84,-47.87 -48.39,-47.87 -0.38,0 -0.75,0 -1.13,0.01z"/>
   </g>
   <g>
    <path class="fil3" d="M326.89 111.58l0 -38.83c0,-5.51 -1.31,-9.5 -3.92,-11.98 -2.62,-2.48 -5.9,-3.72 -9.85,-3.72 -4.04,0 -7.34,1.22 -9.91,3.65 -2.57,2.43 -3.86,6.45 -3.86,12.05l0 38.83 -16.39 0 0 -38.83c0,-5.32 0.73,-9.94 2.2,-13.84 1.47,-3.9 3.47,-7.11 5.99,-9.64 2.52,-2.52 5.53,-4.41 9.02,-5.65 3.49,-1.24 7.25,-1.86 11.29,-1.86 5.14,0 9.71,1.03 13.7,3.1 3.99,2.07 7.23,5.03 9.71,8.88l0.28 0c2.39,-3.86 5.58,-6.82 9.57,-8.88 3.99,-2.07 8.61,-3.1 13.84,-3.1 4.04,0 7.8,0.62 11.29,1.86 3.49,1.24 6.5,3.12 9.02,5.65 2.52,2.52 4.52,5.74 5.99,9.64 1.47,3.9 2.2,8.51 2.2,13.84l0 38.83 -16.39 0 0 -38.83c0,-5.6 -1.29,-9.62 -3.86,-12.05 -2.57,-2.43 -5.87,-3.65 -9.91,-3.65 -3.95,0 -7.21,1.24 -9.78,3.72 -2.57,2.48 -3.86,6.47 -3.86,11.98l0 38.83 -16.39 0zm79.73 -76.15c-3.03,0 -5.6,-1.06 -7.71,-3.17 -2.11,-2.11 -3.17,-4.68 -3.17,-7.71 0,-3.12 1.06,-5.74 3.17,-7.85 2.11,-2.11 4.68,-3.17 7.71,-3.17 3.12,0 5.71,1.06 7.78,3.17 2.07,2.11 3.1,4.73 3.1,7.85 0,3.03 -1.03,5.6 -3.1,7.71 -2.07,2.11 -4.66,3.17 -7.78,3.17zm-8.12 76.15l0 -68.02 16.39 0 0 68.02 -16.39 0zm71.19 -38.83l0 -0.69c0,-5.51 -1.24,-9.39 -3.72,-11.64 -2.48,-2.25 -5.74,-3.37 -9.78,-3.37 -4.04,0 -7.3,1.12 -9.78,3.37 -2.48,2.25 -3.72,6.13 -3.72,11.64l0 39.52 -16.39 0 0 -39.52c0,-5.14 0.73,-9.62 2.2,-13.43 1.47,-3.81 3.51,-6.95 6.13,-9.43 2.62,-2.48 5.76,-4.34 9.43,-5.58 3.67,-1.24 7.71,-1.86 12.12,-1.86 4.41,0 8.45,0.62 12.12,1.86 3.67,1.24 6.82,3.12 9.43,5.65 2.62,2.52 4.64,5.69 6.06,9.5 1.42,3.81 2.13,8.33 2.13,13.56l0 0.41 -16.25 0zm90.88 38.83l-15.01 0 0 -12.67 -0.28 0c-1.84,4.41 -4.87,7.92 -9.09,10.53 -4.22,2.62 -9.23,3.92 -15.01,3.92 -4.04,0 -8.08,-0.73 -12.12,-2.2 -4.04,-1.47 -7.64,-3.69 -10.81,-6.68 -3.17,-2.98 -5.74,-6.7 -7.71,-11.15 -1.97,-4.45 -2.96,-9.71 -2.96,-15.77 0,-5.14 0.9,-9.91 2.69,-14.32 1.79,-4.41 4.31,-8.19 7.57,-11.36 3.26,-3.17 7.11,-5.65 11.57,-7.44 4.45,-1.79 9.39,-2.69 14.8,-2.69 5.32,0 10.24,0.87 14.73,2.62 4.5,1.74 8.33,4.2 11.5,7.37 3.17,3.17 5.65,6.98 7.44,11.43 1.79,4.45 2.69,9.43 2.69,14.94l0 33.46zm-36.35 -13.5c6.06,0 10.9,-1.9 14.53,-5.71 3.63,-3.81 5.44,-8.74 5.44,-14.8 0,-6.06 -1.81,-10.99 -5.44,-14.8 -3.63,-3.81 -8.47,-5.71 -14.53,-5.71 -6.06,0 -10.92,1.91 -14.6,5.71 -3.67,3.81 -5.51,8.74 -5.51,14.8 0,6.06 1.84,10.99 5.51,14.8 3.67,3.81 8.54,5.71 14.6,5.71zm99.28 3.17l-0.28 0c-2.2,3.49 -5.26,6.24 -9.16,8.26 -3.9,2.02 -8.42,3.03 -13.56,3.03 -4.04,0 -8.08,-0.69 -12.12,-2.07 -4.04,-1.38 -7.64,-3.51 -10.81,-6.4 -3.17,-2.89 -5.74,-6.52 -7.71,-10.88 -1.97,-4.36 -2.96,-9.57 -2.96,-15.63 0,-5.14 0.9,-9.91 2.69,-14.32 1.79,-4.41 4.31,-8.19 7.57,-11.36 3.26,-3.17 7.11,-5.65 11.57,-7.44 4.45,-1.79 9.39,-2.69 14.8,-2.69 5.32,0 10.24,0.87 14.73,2.62 4.5,1.74 8.33,4.2 11.5,7.37 3.17,3.17 5.65,6.98 7.44,11.43 1.79,4.45 2.69,9.43 2.69,14.94l0 28.09c0,6.52 -0.94,12.07 -2.82,16.66 -1.88,4.59 -4.45,8.33 -7.71,11.22 -3.26,2.89 -7.09,5 -11.5,6.33 -4.41,1.33 -9.09,2 -14.05,2 -4.22,0 -8.19,-0.46 -11.91,-1.38 -3.72,-0.92 -7.09,-2.34 -10.12,-4.27 -3.03,-1.93 -5.6,-4.36 -7.71,-7.3 -2.11,-2.94 -3.72,-6.43 -4.82,-10.47l16.52 0c1.38,3.21 3.63,5.55 6.75,7.02 3.12,1.47 6.89,2.2 11.29,2.2 6.06,0 10.86,-1.61 14.39,-4.82 3.53,-3.21 5.3,-8.77 5.3,-16.66l0 -5.51zm0 -23.68c0,-6.06 -1.81,-10.99 -5.44,-14.8 -3.63,-3.81 -8.47,-5.71 -14.53,-5.71 -6.06,0 -10.92,1.91 -14.6,5.71 -3.67,3.81 -5.51,8.74 -5.51,14.8 0,6.06 1.84,10.86 5.51,14.39 3.67,3.53 8.54,5.3 14.6,5.3 6.06,0 10.9,-1.77 14.53,-5.3 3.63,-3.53 5.44,-8.33 5.44,-14.39zm39.93 5.78l0 0.28c1.1,4.59 3.33,8.22 6.68,10.88 3.35,2.66 7.6,3.99 12.74,3.99 7.34,0 12.71,-2.16 16.11,-6.47l17.49 0c-2.57,6.52 -6.79,11.7 -12.67,15.56 -5.88,3.86 -12.85,5.78 -20.93,5.78 -5.42,0 -10.35,-0.9 -14.8,-2.69 -4.45,-1.79 -8.31,-4.27 -11.57,-7.44 -3.26,-3.17 -5.78,-6.95 -7.57,-11.36 -1.79,-4.41 -2.69,-9.18 -2.69,-14.32 0,-5.14 0.9,-9.91 2.69,-14.32 1.79,-4.41 4.31,-8.19 7.57,-11.36 3.26,-3.17 7.11,-5.65 11.57,-7.44 4.45,-1.79 9.39,-2.69 14.8,-2.69 5.32,0 10.24,0.9 14.73,2.69 4.5,1.79 8.33,4.27 11.5,7.44 3.17,3.17 5.65,6.95 7.44,11.36 1.79,4.41 2.69,9.18 2.69,14.32l0 5.78 -55.77 0zm19.42 -26.71c-4.87,0 -8.93,1.19 -12.19,3.58 -3.26,2.39 -5.53,5.65 -6.82,9.78l0 0.28 38.01 0 0 -0.28c-1.29,-4.13 -3.58,-7.39 -6.89,-9.78 -3.31,-2.39 -7.34,-3.58 -12.12,-3.58z"/>
    <path class="fil0" d="M393.28 24.57c0,3.71 1.29,6.86 3.88,9.45 2.59,2.59 5.74,3.88 9.45,3.88 3.82,0 7,-1.29 9.53,-3.88 2.53,-2.59 3.8,-5.74 3.8,-9.45 0,-3.82 -1.27,-7.03 -3.8,-9.62 -2.53,-2.59 -5.71,-3.88 -9.53,-3.88 -3.71,0 -6.86,1.29 -9.45,3.88 -2.59,2.59 -3.88,5.79 -3.88,9.62z"/>
   </g>
  </g>
 </g>
</svg>
