<?xml version="1.0" encoding="UTF-8"?>
<!DOCTYPE svg PUBLIC "-//W3C//DTD SVG 1.1//EN" "http://www.w3.org/Graphics/SVG/1.1/DTD/svg11.dtd">
<!-- Creator: CorelDRAW 2021 (64-Bit) -->
<svg xmlns="http://www.w3.org/2000/svg" xml:space="preserve" width="3.6805in" height="1.98577in" version="1.1" style="shape-rendering:geometricPrecision; text-rendering:geometricPrecision; image-rendering:optimizeQuality; fill-rule:evenodd; clip-rule:evenodd"
viewBox="0 0 417.59 225.31"
 xmlns:xlink="http://www.w3.org/1999/xlink"
 xmlns:xodm="http://www.corel.com/coreldraw/odm/2003">
 <defs>
  <style type="text/css">
   <![CDATA[
    .fil0 {fill:#FF4600;fill-rule:nonzero}
   ]]>
  </style>
 </defs>
 <g id="Speech_x0020_Bubble">
  <metadata id="CorelCorpID_0Corel-Layer"/>
  <path class="fil0" d="M176.83 166.88c0.91,-1.52 1.38,-1.97 2.77,-2.64 4.47,2.91 7.92,12.64 7.94,20.44 0.04,10.65 -3.42,14.54 -7.26,21.05 -1.77,-0.51 -2.44,-0.9 -3.47,-2.7 1.16,-1.86 1.47,-1.12 2.46,-3.14 -0.8,-1.26 -0.75,-1.08 -1.77,-2.02l-3.64 2.22 -2.54 -4.51 3.69 -1.42 -0.48 -2.83c-1.74,-0.53 -2.42,0.13 -4.61,0.5l-0.75 -4.91c4.3,-0.47 4.25,0.41 4.06,-3.64l-3.87 -0.07 0.52 -5.06c3.59,-0.35 3.88,3 5.21,-1.82l-3.39 -2.1c0.39,-1.94 1.28,-2.6 1.89,-4.43l3.84 2.31 1.98 -2.05c-0.66,-1.62 -1.41,-1.66 -2.59,-3.17zm-120.11 -52.7l-0.6 6.32 6.67 1.27c-1.07,2.87 -3.23,5.6 -4.58,8.44 1.21,1.39 3.68,2.98 5.63,3.59l6.65 -10.18c2.37,0.4 11.86,4.35 13.57,5.54 -1.25,3.31 -4.13,6.42 -5.28,9.95 1.38,1.51 3.85,2.79 5.79,3.35l5.78 -9.51c1.98,0.76 9.62,7.6 11.25,9.3 -0.31,2.7 -4.44,8.06 -5.65,11 1.13,1.19 3.86,2.88 5.61,3.17l5.23 -7.85c2.28,1.26 2.54,3.71 4.72,5.3l5.39 -3.6c-1.45,-3.26 -6.29,-6.68 -5.32,-9.91 0.63,-2.1 4.46,-6.21 5.49,-9.51 -1.78,-1.15 -3.66,-2.36 -5.57,-3.15l-5.59 8.26c-1.66,-0.8 -9.65,-7.33 -11.24,-8.9 0.34,-3.06 4.28,-7.14 5.37,-10.62l-5.71 -3.18 -6.22 9.74 -13.42 -5.8c0.85,-3.09 3.39,-6.03 4.67,-9 -1.05,-1.22 -3.79,-2.85 -5.59,-3.3 -2.46,2.65 -3.59,6.87 -5.73,8.58 -4.03,3.21 -6.76,-0.23 -11.33,0.7zm73.48 55.84l1.64 2.09c2.24,-0.92 1.54,-1.52 3.76,-2.11 1.18,1.58 1.8,2.42 2.3,4.41l-3.35 1.3c-0.2,5.06 1.93,2.3 4.91,2.49l0.84 4.69 -4.08 0.33 -0.01 3.31 3.99 0.37 -0.51 4.63 -4.32 -0.33 -0.93 2.35 3.43 1.98 -2.1 4.4 -3.72 -2.04 -2.08 1.9 2.92 3.19 -2.93 2.75c-10.43,-6.07 -10.37,-35.97 -0.11,-41.53 1.35,0.71 1.87,1.19 2.82,2.68 -1.29,1.71 -1.73,1.11 -2.45,3.14zm42.59 -6.34l-3.53 -2.3 -1.65 1.78c0.57,1.8 1.28,1.94 2.69,2.99 -0.4,2.08 -1.99,4.58 -3.27,6.26 -1.93,-0.13 -3.78,-1.7 -4.54,0.46 -0.73,2.09 1.38,2.39 2.89,3.45 0.19,8.61 -2.62,6.45 -4.84,7.1 -0.66,1.48 -0.53,0.89 -0.38,2.86l4.22 0.57 1.34 6.93 -3.87 1.46c0.65,4.89 1.53,2.44 5.17,2.18 1.3,1.83 2.88,4.11 3.23,6.28l-2.93 2.3 1.72 2.39c2.46,-0.55 1.74,-1.44 4.36,-2.18l2.82 2.99c-8.81,11.75 -35.67,10.65 -42.95,0.14 1.09,-1.8 1.99,-2.45 3.37,-3.13 1.37,0.77 1.72,1.34 3.14,2.24l2.39 -2.09c-1.1,-1.49 -1.27,-1.42 -3.12,-2.48 0.54,-2.28 1.97,-4.62 3.35,-6.26l4.17 0.63 1.06 -2.49c-1.36,-1.22 -2.13,-1.14 -3.47,-2.24 -0.6,-8.32 2.19,-6.75 4.72,-7.05l0.25 -3.14 -4.29 -0.28 -0.92 -6.69 3.76 -1.94 -0.97 -2.75 -4.25 0.94c-1.11,-1.83 -2.81,-4.27 -3.28,-6.4l2.89 -2.28 -1.69 -2.42c-1.97,0.45 -2.19,1.25 -3.73,2.12 -1.23,-0.74 -2.27,-1.31 -3.34,-3.02 6.92,-10.53 34.55,-11.78 42.96,0 -1.21,1.47 -1.84,2.34 -3.47,3.09zm9.1 -8.85c0.75,-2.5 3.16,-4.2 4.8,-5.96 2.39,-2.57 2.84,-3.56 7.12,-3.83 7.34,-0.46 15.06,0.24 22.46,-0.13 9.23,-0.46 14.29,-0.54 19.08,5.54l6.19 7.91c0.49,0.6 0.67,0.88 1.19,1.46 0.52,0.59 0.91,0.9 1.51,1.62 4.56,5.43 0.35,9.89 -2.47,14.71 -9.34,16 -6.26,17.07 -25.98,18.43 -5.33,0.37 -16.88,0.72 -21.16,-1.51 0.05,-0.96 0.26,-2.11 0.36,-2.92 1.7,-14.57 -3.26,-25.34 -13.1,-35.33zm146.02 24.61c1.25,-5.56 9.6,-21.89 13.45,-36.81 8.81,-34.15 -0.08,-33.03 16.87,-33.02 18.01,0.02 14.38,-1.96 16.39,6.86 0.58,2.52 1.13,4.53 1.87,7.06 1.33,4.53 2.85,8.78 4.42,12.78 5.44,13.88 7.48,8.61 -4.64,21.37 -8.91,9.38 -29.45,21.41 -48.37,21.75zm-56.53 -86.48c4.37,-1.92 5.75,0.95 10.65,5.53 2.9,2.71 5.42,5.52 8.34,8.42 2.81,2.79 6.99,4.97 6.6,10.17 -0.96,12.67 -6.99,27.75 -13.34,37.55 -3.41,5.26 -3.15,5.16 -10.45,6.28 -4.95,0.76 -9.85,1.42 -14.65,2.12 -8.52,1.26 -7.66,1.72 -12.37,-3.53l-11.79 -13.35c-1.61,-1.96 -1.79,-3.5 -0.77,-6.52 1.42,-4.18 2.83,-8.47 4.18,-12.5 1.46,-4.35 2.85,-8.51 4.4,-12.88 1.75,-4.93 1.86,-8.38 6.2,-10.63 7.32,-3.79 15.14,-7.21 22.99,-10.66zm12.45 78.64c1.99,-4.68 12.82,-12.08 20.36,-27.31 5.39,-10.88 9.17,-22.24 11.7,-35.68l21.24 0.91c1.19,4.82 -2.79,23.97 -4.07,29.02 -3.59,14.12 -8.24,23.49 -13.79,36.07 -2.52,5.71 -2.79,5.9 -10.36,4.83 -7.16,-1.02 -20.67,-4.11 -25.08,-7.83zm-156.72 -61.82c0.59,-1.04 16.18,-17.48 18.5,-17.66 1.67,-0.13 21.61,9.54 24.69,11.22 4.86,2.66 5.23,5.64 7.17,11.16 1.45,4.13 8.71,24.29 8.93,27.32 0.24,3.35 -5.3,9.44 -7.33,10.54 -8.86,-5.08 -12.78,-7.99 -26.19,-7.79 -1.57,-0.74 -1.16,-0.53 -2.06,-2.38 -4.23,-8.73 -10.24,-18.02 -16.51,-24.84 -2.48,-2.7 -4.95,-4.95 -7.19,-7.57zm275.32 -2.35c-0.54,3.77 -2.32,8.92 -3.42,12.78 -0.6,2.1 -1.09,3.85 -1.73,6.12 -1.21,4.26 -0.5,4.1 -2.37,5.1 -1.91,-0.86 -1.38,-1.4 -2.65,-5.4l-5.22 -17.33 15.39 -1.28zm-16.33 -9.15c-0.57,-12.93 1.31,-28.76 6.18,-39.24 2.56,1.3 6.68,14.56 7.26,16.7 1.56,5.73 3.15,14.5 2.86,20.95 -1.74,0.99 -14.21,1.87 -16.3,1.6zm-365.77 -3.64c37.43,-10.89 76.89,-0.68 102.38,25.4 4.43,4.53 17.84,21.16 18.48,26.79 -9.37,3.26 -16.67,9.48 -20.91,16.8 -6.29,10.85 -6.2,16.83 -5.27,30.7 -33.7,0.31 -54,-9.63 -72.76,-25.78 -7.87,-6.78 -15.16,-16.15 -21.02,-28.19 -3,-6.16 -13.02,-30.24 -10.98,-37.02 6.39,-2.66 16.24,3.89 22.79,4.78l2.59 -5.9 -15.28 -5.57 -2.73 -1.01c0.36,-0.32 0.16,-0.37 1.02,-0.72 0.78,-0.32 0.71,-0.15 1.71,-0.27zm188.42 -23.1c0,7.91 -1.45,7.3 -5.86,10.64l-19.53 14.13c-9.88,7.03 -5.7,7.42 -22.45,-0.76 -14.32,-6.99 -14.41,-4.47 -17.01,-16.63 -0.98,-4.58 -2.06,-9.05 -2.94,-13.77 -1.3,-6.99 -2.72,-8.18 1.29,-13.14 2.74,-3.39 5.13,-5.93 8.12,-8.65 2.92,-2.66 5.7,-5.17 9.26,-7.47 17.94,-11.6 16.68,-11.36 33.01,-1.47 1.2,0.73 1.58,0.95 2.65,1.53 0.99,0.53 1.81,0.95 2.72,1.45 11.88,6.44 10.42,5.35 10.25,14.75l0.49 19.38zm2.6 -21.48c0,-8.18 0.22,-7.2 6.41,-10.56 3.57,-1.94 6.83,-3.98 10.33,-5.91 13.25,-7.28 12.02,-9.26 22.47,-3.7 11.52,6.14 19.63,12.81 27.32,22.46 3.49,4.38 2.23,6.8 1.04,12.65 -5.67,27.95 -2.24,22.17 -19.44,30.39 -15.21,7.27 -13.6,7.9 -22.48,1.49 -3.28,-2.36 -6.27,-4.47 -9.42,-6.82 -3.35,-2.5 -6.42,-4.67 -9.73,-7.04 -3.61,-2.6 -6.81,-3.34 -6.81,-9.4l0.3 -23.57zm63.07 -21.2c10.07,3.37 23.81,28.99 24.85,39.28 -0.46,-3.61 -10,-17.67 -12.08,-20.37 -8.53,-11.1 -10.06,-10.1 -15.94,-16.56 0.92,-1.28 1.5,-1.5 3.17,-2.34zm15.82 -8.13c2.43,-1.75 9.45,-3.37 13.09,-4.17 3.78,-0.84 12.21,-3.1 14.5,0.58 7.38,11.9 14.92,35.96 17.53,50.49 0.98,5.43 4.01,27.28 1.98,31.13 -0.69,0.46 -0.02,0.21 -1.19,0.45 -0.55,0.11 -0.88,0.11 -1.45,0.12l-7.9 -0.35c-3.08,-0.11 -6.41,-0.28 -9.63,-0.53 -0.57,-2.8 -0.14,-9.25 -0.38,-12.73 -1.38,-19.96 -8.74,-41.92 -20.73,-57.81 -2.01,-2.67 -4.28,-4.85 -5.83,-7.17zm81.34 78.32l-23.52 -0.05c-0.65,-2.72 -0.45,-9 -0.64,-12.26 -0.24,-4.3 -0.67,-7.9 -1.18,-12.02 -1.64,-13.37 -6.1,-29.36 -11.1,-41.34l-8.12 -18.06c22.02,1.59 40.44,13 51.12,23.76 5.66,5.71 4.53,4.63 1.46,12.93 -3.68,9.94 -5.83,18.75 -7.15,29.57 -0.55,4.51 -0.09,14.05 -0.87,17.47zm-99.25 83.96c2,0.9 3.94,2.11 5.66,2.89 20.61,9.41 41.39,11.92 63.68,6.85 8.29,-1.89 17.05,-5.04 24.39,-9.09 10.93,-6.03 19.57,-12.47 27.78,-22.03 24.71,-28.78 30.29,-66.81 16.01,-102.42l-2.61 -5.74c-0.93,-1.89 -1.96,-3.7 -2.96,-5.44 -5.85,-10.09 -14.38,-19.9 -23.35,-26.9 -21.95,-17.11 -48.26,-24.49 -77.66,-19.67 -28.55,4.69 -39.42,17.85 -45.61,20.67 -9.13,-4.12 -10.41,-5.75 -21.9,-8.86 -41.32,-11.2 -84.09,5.72 -107.09,39.82 -7.23,10.72 -15.37,28.84 -16,44.9l-15.62 -8.31c-18.11,-8.33 -39.56,-11.4 -59.9,-9.05 -36.19,4.18 -44.16,16.08 -31.58,50.71 14.9,40.99 49.93,67.15 91.44,72.49 12.91,1.66 12.08,0.48 22.49,0.6 2.17,5.74 9.44,11.96 13.98,14.87 6.1,3.91 13.04,6.22 22.54,5.99 8.49,-0.2 16.16,-3.2 21.58,-6.96 9.5,-6.59 9.89,-11.05 13.52,-14.95 1.42,0.07 2.1,0.2 3.47,0.42l0.86 0.14c0.16,0.02 0.28,0.03 0.45,0.05 0.45,0.05 1.04,0.09 1.51,0.13 7.34,0.72 11.08,1.05 18.88,0.55 1.18,-0.08 2.41,-0.14 3.58,-0.23 1.37,-0.11 0.94,-0.09 2.66,-0.36 1.76,-0.28 3.67,-0.46 5.56,-0.82 13.88,-2.62 25.4,-7.59 36.69,-15.13 1.86,-1.24 5.88,-4.53 7.54,-5.15z"/>
 </g>
</svg>
