<?xml version="1.0" encoding="UTF-8"?>
<!DOCTYPE svg PUBLIC "-//W3C//DTD SVG 1.1//EN" "http://www.w3.org/Graphics/SVG/1.1/DTD/svg11.dtd">
<!-- Creator: CorelDRAW 2021 (64-Bit) -->
<svg xmlns="http://www.w3.org/2000/svg" xml:space="preserve" width="2.57783in" height="4.84339in" version="1.1" style="shape-rendering:geometricPrecision; text-rendering:geometricPrecision; image-rendering:optimizeQuality; fill-rule:evenodd; clip-rule:evenodd"
viewBox="0 0 225.27 423.25"
 xmlns:xlink="http://www.w3.org/1999/xlink"
 xmlns:xodm="http://www.corel.com/coreldraw/odm/2003">
 <defs>
  <style type="text/css">
   <![CDATA[
    .fil0 {fill:#FF4600;fill-rule:nonzero}
   ]]>
  </style>
 </defs>
 <g id="Speech_x0020_Bubble">
  <metadata id="CorelCorpID_0Corel-Layer"/>
  <g id="_1976132165312">
   <polygon class="fil0" points="34.43,423.25 190.78,423.25 206.23,239.35 19.28,239.33 "/>
   <path class="fil0" d="M110.9 113.62c0.53,-4.48 -1.36,3.74 0.2,-1.36l1.55 1.5c-0.09,6.21 2.44,17.24 3.36,24.15 1.09,8.16 2.5,15.86 3.64,23.96 3.9,27.58 6.12,20.88 -2.03,32.44 -1.55,2.2 -3.89,6.3 -6.55,7.31 -13.5,-20.12 -12,-8.64 -7.03,-40.29l6.86 -47.7zm-91 90.59l37.52 0.04 4.7 -17.41c2.48,2.52 1.45,11.1 1.45,17.05 5.32,1.25 88.26,0.35 101.25,0.36 -0.45,-10.48 -2.03,-19.95 -6.3,-27.7 -1.98,-3.59 -4.56,-7.47 -7.07,-9.82 -5.98,-5.6 -6.35,-4.23 -17.86,-4.22 -7.53,0 -13.07,-1.84 -13.44,-9.07 -0.54,-10.74 10.1,-10.22 17.49,-10.22 11.38,-0 9.7,3.57 13.23,5.83 1.03,0.66 3.02,1.42 4.43,2.27 17.14,10.3 23.36,31.71 24.52,52.62l25.52 0.35c-3.33,-23.16 -17.05,-50.13 -28.37,-66.49 -11.4,-16.47 -30.2,-33.1 -53.46,-40.89l-11.57 11.28c-4.05,-2.02 -7.93,-8.47 -11.49,-11.24 -8.27,1.27 -23.31,12.7 -29.16,17.22 -25.12,19.38 -47.17,56 -51.39,90.03z"/>
   <path class="fil0" d="M116.25 0l-10.6 0c-2.34,1.22 -5.71,1.35 -8.36,2.18 -19.93,6.17 -34,24.61 -33.22,47.19 0.84,24.45 21.28,44.51 46.52,44.9 47.69,0.72 66.86,-63.68 22.76,-88.58 -2.71,-1.53 -4.95,-2.5 -8.12,-3.44 -2.17,-0.64 -7.61,-1.6 -8.98,-2.25z"/>
   <polygon class="fil0" points="0.92,233.24 224.14,233.38 224.3,209.97 1.2,209.97 "/>
   <path class="fil0" d="M112.64 113.75l-1.74 -0.14 -6.86 47.7c-4.97,31.65 -6.47,20.17 7.03,40.29 2.65,-1.02 4.99,-5.11 6.55,-7.31 8.15,-11.56 5.93,-4.85 2.03,-32.44 -1.14,-8.09 -2.56,-15.79 -3.64,-23.96 -0.92,-6.91 -3.46,-17.94 -3.36,-24.15z"/>
   <path class="fil0" d="M1.2 209.97l223.09 -0 -0.16 23.41 -223.23 -0.15 0.29 -23.26zm-0.72 23.86l224.28 0.29c0.56,-4.44 0.89,-21.42 -0.27,-24.83l-223.77 -0.21c-1.02,3.38 -0.82,20.92 -0.24,24.75z"/>
   <path class="fil0" d="M110.9 113.62l1.74 0.14 -1.55 -1.5c-1.56,5.1 0.34,-3.12 -0.2,1.36z"/>
  </g>
 </g>
</svg>
