<?xml version="1.0" encoding="UTF-8"?>
<!DOCTYPE svg PUBLIC "-//W3C//DTD SVG 1.1//EN" "http://www.w3.org/Graphics/SVG/1.1/DTD/svg11.dtd">
<!-- Creator: CorelDRAW 2021 (64-Bit) -->
<svg xmlns="http://www.w3.org/2000/svg" xml:space="preserve" width="3.67598in" height="4.35319in" version="1.1" style="shape-rendering:geometricPrecision; text-rendering:geometricPrecision; image-rendering:optimizeQuality; fill-rule:evenodd; clip-rule:evenodd"
viewBox="0 0 342.25 405.3"
 xmlns:xlink="http://www.w3.org/1999/xlink"
 xmlns:xodm="http://www.corel.com/coreldraw/odm/2003">
 <defs>
  <style type="text/css">
   <![CDATA[
    .fil0 {fill:#FF4600;fill-rule:nonzero}
   ]]>
  </style>
 </defs>
 <g id="Speech_x0020_Bubble">
  <metadata id="CorelCorpID_0Corel-Layer"/>
  <g id="_1939863991248">
   <path class="fil0" d="M222.72 96.98c-30.46,3.14 -56.54,16.93 -66.15,38.18 -24.17,53.42 29.81,162.64 -15.5,228.87 -8.53,12.48 -21.96,21.17 -20.67,31.25 0.97,7.54 9.58,12.75 17.57,8.49 6.68,-3.56 28.05,-32.3 33.28,-44.45 11.93,-27.73 13.62,-57.8 11.74,-90.64 -1.86,-32.52 -8.64,-64.15 -8.75,-97.02 -0.14,-39.94 18.01,-44.43 53.55,-51.4l-5.07 -23.29z"/>
   <path class="fil0" d="M192.14 233.23c21.65,-2.93 44.6,-14.54 58.32,-24.89 40.39,-30.45 12.8,-94.19 5.76,-129.59 -9.91,-49.9 7.91,-56.96 6.44,-68.45 -1.09,-8.54 -14.93,-17.18 -23.37,-1.9 -18.17,32.91 -8.59,70.01 0.46,103.66 5.32,19.79 14.04,49.9 3.41,68.3 -8.63,14.92 -31.26,25.03 -54.41,28.98l3.37 23.9z"/>
   <path class="fil0" d="M141.76 217.56c-57.1,2.08 -98.38,18.83 -132.5,59.94 -3.89,4.69 -10.85,8.84 -8.92,18.09 1.24,5.94 8.88,11.43 16.5,7.66 4.35,-2.15 10.95,-10.67 13.59,-13.64 35.53,-39.91 63.76,-43.7 114.94,-48.63l-3.61 -23.42z"/>
   <path class="fil0" d="M40.93 292.11c3.29,3.27 6.16,6.85 9.96,10.1l72.01 67.52c5.58,-2.56 11.27,-10.19 13.76,-15.74l-80.64 -75.09c-6.04,2.7 -11.4,8.65 -15.09,13.22z"/>
   <path class="fil0" d="M270.83 87.35l5.3 22.56c13.82,-1.25 32.35,-14.68 40.42,-21.65 47.59,-41.1 16.25,-50.75 6.98,-43.48 -2.25,1.76 -4.62,5.71 -6.84,8.68 -11.87,15.92 -24.86,25.93 -45.86,33.9z"/>
   <path class="fil0" d="M145.24 325.7c3.18,-3.55 4.11,-8.98 4.67,-14.77 0.89,-9.29 0.98,-9.92 -4.3,-14.2l-40.38 -37.3c-4.71,-4.27 -5.53,-3.9 -13.23,-1.37 -4.71,1.54 -9.35,3.51 -13.54,5.78l66.77 61.86z"/>
   <path class="fil0" d="M193.45 140.87c4.99,4.59 37.57,25.08 44.5,27.94 4.17,-21.87 0.24,-20.88 -13.64,-29.68 -5.1,-3.23 -8.42,-7.16 -15.66,-5.09 -5.58,1.59 -11.11,4.41 -15.19,6.83z"/>
   <path class="fil0" d="M184.32 158.91c-4.01,22.34 -0.67,21.07 12.83,29.37 9.25,5.69 12.29,8.9 29.03,-2.93 -5.58,-4.78 -34.77,-23.36 -41.86,-26.45z"/>
   <path class="fil0" d="M265.19 33.3l38.81 21.08c3.54,-3.46 6.43,-7.29 7.73,-10.74l-40.88 -22.58c-2.83,3.42 -4.93,6.77 -5.65,12.24z"/>
   <path class="fil0" d="M263 63.99c15.8,9.15 16.98,11.39 26.42,3.6 2.95,-2.43 1.19,-0.33 3.37,-3.62l-30.2 -16.06 0.41 16.08z"/>
  </g>
 </g>
</svg>
